<svg width="308" height="300" viewBox="0 0 308 300" fill="none" xmlns="http://www.w3.org/2000/svg">
<g clip-path="url(#clip0_162_13980)">
<path d="M98.0031 145.329L136.558 102.448L183.534 31.2035L40.2346 68.2713C31.9113 70.5545 23.8956 74.5982 17.0267 81.3593C0.816204 97.3302 -3.00585 122.488 7.82024 142.455C22.4806 169.512 56.7129 177.903 81.9672 161.372C83.3507 160.512 84.9355 159.127 86.4625 157.919C90.8485 154.217 94.6933 149.882 98.0031 145.329Z" fill="white"/>
<path d="M204.12 189.049L207.557 131.496L223.988 47.8704L299.405 175.05C303.776 182.36 306.367 190.977 306.492 200.62C306.748 223.375 291.726 243.918 269.973 250.463C240.508 259.339 210.3 241.181 204.02 211.658C203.66 210.079 203.494 207.974 203.262 206.04C202.934 200.397 203.26 194.611 204.12 189.049Z" fill="white"/>
<path d="M165.151 133C191.843 143.997 222.362 131.357 233.317 104.767C244.272 78.1779 231.514 47.7079 204.822 36.7106C178.13 25.7134 147.611 38.3533 136.656 64.9428C125.701 91.5322 138.459 122.002 165.151 133Z" fill="#F8A91F"/>
<path d="M218.62 3.2153C213.713 1.19345 208.318 0.400593 202.925 1.0351C197.549 1.67615 192.406 3.22856 188.04 6.331C183.688 9.4355 180.004 13.4264 177.562 18.3361C175.207 23.0783 174.001 28.5016 174.058 33.8298L228.522 56.2691C232.493 52.6003 235.372 48.0741 236.933 42.7973C238.496 37.525 239.032 32.2373 237.952 26.895C237.051 21.626 234.569 16.7286 231.19 12.4764C227.825 8.23399 223.528 5.23716 218.62 3.2153Z" fill="#D62B58"/>
<path d="M95.5767 301.853C95.5767 301.853 121.266 286.728 149.144 266.788L82.2544 239.229C88.0709 272.844 95.5735 301.852 95.5735 301.852L95.5767 301.853Z" fill="#F8A91F"/>
<path d="M216.84 201.429L80.26 145.157C76.3795 154.576 75.4317 169.285 76.1706 185.915L191.047 233.245C203.271 221.955 212.96 210.847 216.84 201.429Z" fill="#F8A91F"/>
<path d="M215.904 145.543C208.222 127.889 193.942 113.844 176.072 106.482C158.202 99.1196 138.173 99.0285 120.213 106.321C102.148 113.367 88.0007 127.332 80.2555 145.157L216.836 201.428C223.895 183.321 223.514 163.37 215.904 145.543Z" fill="#D62B58"/>
<path d="M76.1665 185.914C76.9988 202.786 79.4282 221.743 82.4363 239.305L148.983 266.722C163.49 256.373 178.5 244.805 191.043 233.243L76.1665 185.914Z" fill="#D62B58"/>
</g>
<defs>
<clipPath id="clip0_162_13980">
<rect width="308" height="300" fill="white"/>
</clipPath>
</defs>
</svg>
