<svg width="101" height="97" viewBox="0 0 101 97" fill="none" xmlns="http://www.w3.org/2000/svg">
<g clip-path="url(#clip0_126_6985)">
<path d="M32.3503 46.6788L44.8786 32.9173L60.1429 10.0529L13.5789 21.9489C10.8743 22.6817 8.26965 23.9794 6.03765 26.1492C0.770164 31.2747 -0.471782 39.3484 3.04608 45.7566C7.80984 54.4396 18.9334 57.1326 27.1396 51.8274C27.5891 51.5514 28.1041 51.107 28.6003 50.7193C30.0255 49.5313 31.2748 48.1398 32.3503 46.6788Z" fill="white"/>
<path d="M66.8327 60.71L67.9495 42.2396L73.2884 15.4019L97.7946 56.2172C99.2149 58.563 100.057 61.3286 100.098 64.4232C100.181 71.7259 95.2994 78.3187 88.2309 80.4192C78.6566 83.2679 68.8406 77.4404 66.8 67.9656C66.683 67.459 66.6292 66.7833 66.5536 66.1628C66.4472 64.3516 66.5529 62.4948 66.8327 60.71Z" fill="white"/>
<path d="M54.1695 42.7227C62.843 46.252 72.7599 42.1955 76.3196 33.6623C79.8793 25.129 75.7339 15.3504 67.0605 11.8211C58.387 8.29174 48.4701 12.3482 44.9104 20.8815C41.3507 29.4148 45.4961 39.1934 54.1695 42.7227Z" fill="#F8A91F"/>
<path d="M71.5442 1.071C69.9496 0.422129 68.1965 0.167679 66.4442 0.37131C64.6972 0.57704 63.0261 1.07525 61.6075 2.0709C60.1934 3.06722 58.9963 4.34799 58.2026 5.92368C57.4373 7.44556 57.0457 9.18605 57.064 10.896L74.7616 18.0974C76.052 16.9199 76.9876 15.4674 77.4948 13.7739C78.0026 12.0819 78.1769 10.3849 77.8261 8.67044C77.533 6.97948 76.7266 5.40776 75.6286 4.04314C74.5353 2.68163 73.1388 1.71986 71.5442 1.071Z" fill="#EC6198"/>
<path d="M31.5619 96.9123C31.5619 96.9123 39.9096 92.0581 48.9682 85.6588L27.233 76.8145C29.123 87.6023 31.5609 96.9118 31.5609 96.9118L31.5619 96.9123Z" fill="#F8A91F"/>
<path d="M70.9655 64.6826L26.5847 46.6235C25.3238 49.6462 25.0158 54.3668 25.2559 59.704L62.5843 74.8933C66.5563 71.2701 69.7046 67.7053 70.9655 64.6826Z" fill="#F8A91F"/>
<path d="M70.6618 46.7477C68.1658 41.0823 63.5254 36.5749 57.7187 34.2121C51.9121 31.8494 45.4036 31.8201 39.5678 34.1606C33.6976 36.4217 29.1007 40.9034 26.5839 46.6239L70.9647 64.683C73.2585 58.8718 73.1345 52.4691 70.6618 46.7477Z" fill="#EC6198"/>
<path d="M25.2549 59.7036C25.5253 65.1185 26.3148 71.2023 27.2922 76.8383L48.916 85.6373C53.63 82.316 58.5073 78.6035 62.5833 74.893L25.2549 59.7036Z" fill="#EC6198"/>
</g>
<defs>
<clipPath id="clip0_126_6985">
<rect width="101" height="97" fill="white"/>
</clipPath>
</defs>
</svg>
