<svg width="104" height="133" viewBox="0 0 104 133" fill="none" xmlns="http://www.w3.org/2000/svg">
<g clip-path="url(#clip0_162_13009)">
<path d="M51.7463 67.2747C51.0554 72.0475 54.4603 76.5734 59.2523 77.2623C64.0444 77.9511 68.581 74.5678 69.2719 69.795L77.9109 10.074C78.6018 5.30124 75.2085 0.77801 70.4165 0.0891265C65.6244 -0.599757 61.0761 2.78226 60.3865 7.55375L51.7476 67.2747H51.7463Z" fill="#46B27E"/>
<path d="M36.1189 25.6374C31.3269 24.9486 26.7787 28.3319 26.0891 33.1021C25.3982 37.8749 28.8032 42.4007 33.5952 43.0909L93.5504 51.7136C98.3425 52.4025 102.879 49.0179 103.57 44.2451C104.26 39.4736 100.868 34.9491 96.0755 34.2602L36.1203 25.6374H36.1189Z" fill="#46B27E"/>
<path d="M75.9418 68.1107C78.8762 72.0126 84.3448 72.799 88.266 69.8836C92.1755 66.9669 92.9642 61.513 90.0415 57.6124L53.7141 9.23973C50.7914 5.34039 45.3111 4.55143 41.4016 7.46944C37.4803 10.3848 36.6917 15.8387 39.6261 19.7407L75.9418 68.1107Z" fill="#46B27E"/>
<path d="M35.3068 49.6004C31.3856 52.5158 30.5969 57.9697 33.5313 61.8716C36.454 65.771 41.9344 66.56 45.8439 63.6419L94.4003 27.4782C98.3098 24.5602 99.0985 19.1063 96.1758 15.2056C93.2414 11.3037 87.7728 10.5173 83.8516 13.4327L35.3068 49.5991V49.6004Z" fill="#46B27E"/>
<path d="M13.4341 128.101C13.0736 130.591 14.8501 132.952 17.3504 133.312C19.8506 133.671 22.2176 131.906 22.5781 129.416L27.0855 98.2561C27.446 95.7659 25.6755 93.4059 23.1753 93.0465C20.675 92.6871 18.3019 94.4516 17.9421 96.9412L13.4348 128.101H13.4341Z" fill="#F8A91F"/>
<path d="M5.27956 106.376C2.77931 106.017 0.406292 107.782 0.0464906 110.271C-0.313991 112.761 1.46258 115.123 3.96283 115.483L35.2445 119.982C37.7447 120.341 40.1117 118.575 40.4722 116.085C40.832 113.595 39.0622 111.235 36.562 110.875L5.28029 106.376H5.27956Z" fill="#F8A91F"/>
<path d="M26.0571 128.537C27.5882 130.573 30.4414 130.983 32.4873 129.462C34.5271 127.94 34.9386 125.095 33.4137 123.059L14.4598 97.8209C12.9349 95.7865 10.0756 95.3748 8.03577 96.8973C5.98987 98.4184 5.57837 101.264 7.1094 103.3L26.0571 128.537Z" fill="#F8A91F"/>
<path d="M4.85511 118.879C2.8092 120.4 2.3977 123.246 3.92873 125.282C5.45364 127.316 8.31302 127.728 10.3528 126.205L35.6872 107.337C37.7269 105.814 38.1385 102.969 36.6135 100.934C35.0825 98.8978 32.2293 98.4876 30.1834 100.009L4.85511 118.879V118.879Z" fill="#F8A91F"/>
</g>
<defs>
<clipPath id="clip0_162_13009">
<rect width="104" height="133" fill="white"/>
</clipPath>
</defs>
</svg>
