<svg width="41" height="41" viewBox="0 0 41 41" fill="none" xmlns="http://www.w3.org/2000/svg">
<path d="M13.4341 35.1006C13.0736 37.5909 14.8501 39.9522 17.3504 40.3116C19.8506 40.6711 22.2176 38.9058 22.5781 36.4156L27.0855 5.25613C27.446 2.76592 25.6755 0.405927 23.1752 0.0465018C20.675 -0.312924 18.3019 1.45165 17.9421 3.94118L13.4348 35.1006H13.4341Z" fill="#EC6198"/>
<path d="M5.27956 13.3766C2.77931 13.0171 0.406292 14.7824 0.0464906 17.2712C-0.313991 19.7615 1.46258 22.1228 3.96283 22.4829L35.2445 26.9818C37.7447 27.3413 40.1117 25.5753 40.4722 23.0851C40.832 20.5956 39.0622 18.2349 36.562 17.8755L5.28029 13.3766H5.27956Z" fill="#EC6198"/>
<path d="M26.0571 35.5369C27.5882 37.5727 30.4414 37.983 32.4873 36.4619C34.5271 34.9401 34.9386 32.0946 33.4137 30.0594L14.4598 4.82094C12.9349 2.78646 10.0756 2.37481 8.03577 3.89729C5.98987 5.4184 5.57837 8.26397 7.1094 10.2998L26.0571 35.5369Z" fill="#EC6198"/>
<path d="M4.85511 25.8794C2.8092 27.4005 2.3977 30.2461 3.92873 32.282C5.45364 34.3164 8.31302 34.7281 10.3528 33.2056L35.6872 14.3371C37.7269 12.8147 38.1385 9.96909 36.6135 7.93393C35.0825 5.89809 32.2293 5.4878 30.1834 7.00892L4.85511 25.8788V25.8794Z" fill="#EC6198"/>
</svg>
