<svg width="155" height="117" viewBox="0 0 155 117" fill="none" xmlns="http://www.w3.org/2000/svg">
<mask id="mask0_164_753" style="mask-type:luminance" maskUnits="userSpaceOnUse" x="0" y="0" width="155" height="117">
<path d="M155 0H0V117H155V0Z" fill="white"/>
</mask>
<g mask="url(#mask0_164_753)">
<path d="M148.858 33.4564C152.217 33.4564 155 30.6561 155 27.2803C155 23.9045 152.217 21.1138 148.858 21.1138H106.819C103.459 21.1138 100.677 23.9061 100.677 27.2803C100.677 30.6545 103.459 33.4564 106.819 33.4564H148.858Z" fill="#734494"/>
<path d="M121.694 48.3943C121.694 51.7701 124.477 54.5704 127.836 54.5704C131.196 54.5704 133.978 51.7701 133.978 48.3943V6.1681C133.98 2.79232 131.197 0 127.838 0C124.479 0 121.696 2.79232 121.696 6.1665V48.3943H121.694Z" fill="#734494"/>
<path d="M147.034 16.6787C149.433 14.2647 149.433 10.4129 147.034 7.99884C144.634 5.59283 140.796 5.59283 138.395 7.99884L108.642 37.8904C106.242 40.2964 106.242 44.1563 108.642 46.5623C111.041 48.9763 114.879 48.9763 117.28 46.5623L147.035 16.6787H147.034Z" fill="#734494"/>
<path d="M138.395 46.5623C140.794 48.9763 144.633 48.9763 147.034 46.5623C149.433 44.1563 149.433 40.2964 147.034 37.8904L117.28 7.99884C114.881 5.59283 111.042 5.59283 108.642 7.99884C106.242 10.4129 106.242 14.2647 108.642 16.6787L138.397 46.5623H138.395Z" fill="#734494"/>
<path d="M106.614 99.0258C109.474 99.0258 111.844 96.6422 111.844 93.7682C111.844 90.8941 109.475 88.5186 106.614 88.5186H70.8244C67.965 88.5186 65.5945 90.8957 65.5945 93.7682C65.5945 96.6406 67.9634 99.0258 70.8244 99.0258H106.614Z" fill="#46B27E"/>
<path d="M83.489 111.744C83.489 114.618 85.858 117.002 88.7189 117.002C91.5799 117.002 93.9489 114.618 93.9489 111.744V75.795C93.9489 72.921 91.5799 70.5454 88.7189 70.5454C85.858 70.5454 83.489 72.9226 83.489 75.795V111.744Z" fill="#46B27E"/>
<path d="M105.062 84.7443C107.105 82.6894 107.105 79.4097 105.062 77.3548C103.019 75.3062 99.7503 75.3062 97.7072 77.3548L72.377 102.801C70.334 104.85 70.334 108.136 72.377 110.185C74.4201 112.24 77.6884 112.24 79.7315 110.185L105.062 84.7443Z" fill="#46B27E"/>
<path d="M97.7072 110.185C99.7503 112.24 103.019 112.24 105.062 110.185C107.105 108.136 107.105 104.85 105.062 102.802L79.7315 77.3533C77.6884 75.3048 74.4201 75.3048 72.377 77.3533C70.334 79.4083 70.334 82.6879 72.377 84.7428L97.7072 110.183V110.185Z" fill="#46B27E"/>
<path d="M48.1891 45.3677C51.5485 45.3677 54.3327 42.5673 54.3327 39.1915C54.3327 35.8158 51.5485 33.0234 48.1891 33.0234H6.14364C2.78429 33.0234 0 35.8158 0 39.1915C0 42.5673 2.78429 45.3677 6.14364 45.3677H48.1891Z" fill="#F8A91F"/>
<path d="M21.022 60.3074C21.022 63.6832 23.8063 66.4835 27.1656 66.4835C30.525 66.4835 33.3093 63.6832 33.3093 60.3074V18.0748C33.3093 14.6991 30.525 11.9067 27.1656 11.9067C23.8063 11.9067 21.022 14.6991 21.022 18.0748V60.3074Z" fill="#F8A91F"/>
<path d="M46.3665 28.5886C48.7658 26.1745 48.7658 22.3227 46.3665 19.907C43.9672 17.501 40.127 17.501 37.7261 19.907L7.96794 49.8034C5.56863 52.2094 5.56863 56.0693 7.96794 58.4769C10.3673 60.8909 14.2074 60.8909 16.6067 58.4769L46.3649 28.5886H46.3665Z" fill="#F8A91F"/>
<path d="M37.7261 58.4769C40.1254 60.8909 43.9656 60.8909 46.3665 58.4769C48.7658 56.0709 48.7658 52.211 46.3665 49.8034L16.6083 19.907C14.209 17.501 10.3688 17.501 7.96794 19.907C5.56863 22.3227 5.56863 26.1745 7.96794 28.5886L37.7261 58.4769Z" fill="#F8A91F"/>
</g>
</svg>
