<svg width="460" height="320" viewBox="0 0 460 320" fill="none" xmlns="http://www.w3.org/2000/svg">
<g clip-path="url(#clip0_162_12977)">
<path d="M293.03 179.408C287.771 91.4789 215.098 21.9194 126.262 21.9194C126.262 114.339 200.694 189.174 292.833 189.566H293.429C385.386 189.178 460 114.339 460 21.9194C370.966 21.9194 298.293 91.4789 293.034 179.408" fill="#F8A91F"/>
<path d="M293.03 301.135C287.771 213.405 215.098 143.647 126.262 143.647C126.262 236.067 200.694 310.902 292.833 311.294H293.429C385.386 310.902 460 236.067 460 143.647C370.966 143.647 298.293 213.401 293.034 301.135" fill="#46B27E"/>
<path d="M303.552 10.2531C303.552 4.39145 298.873 -0.297852 293.03 -0.297852C287.187 -0.297852 282.508 4.39145 282.508 10.2531V82.5493C282.508 88.411 287.187 93.1003 293.03 93.1003C298.873 93.1003 303.552 88.411 303.552 82.5493V10.2531Z" fill="#D92858"/>
<path d="M329.075 56.952C334.918 56.952 339.597 52.2627 339.597 46.401C339.597 40.5394 334.918 35.8501 329.075 35.8501H256.982C251.139 35.8501 246.46 40.5394 246.46 46.401C246.46 52.2627 251.139 56.952 256.982 56.952H329.075Z" fill="#D92858"/>
<path d="M274.905 13.382C270.822 9.2789 264.202 9.2789 260.102 13.382C256.019 17.4852 256.019 24.1311 260.102 28.2302L311.151 79.4245C315.234 83.5277 321.854 83.5277 325.954 79.4245C330.053 75.3214 330.053 68.6755 325.954 64.5724L274.905 13.378V13.382Z" fill="#D92858"/>
<path d="M325.954 28.2302C330.053 24.127 330.053 17.4852 325.954 13.382C321.854 9.2789 315.234 9.2789 311.151 13.382L260.102 64.5724C256.019 68.6755 256.019 75.3214 260.102 79.4245C264.202 83.5277 270.822 83.5277 274.905 79.4245L325.954 28.2302Z" fill="#D92858"/>
<path d="M49.2135 13.8591C49.2135 8.88278 45.094 4.75537 40.1289 4.75537C35.1638 4.75537 31.0564 8.87874 31.0564 13.8591V76.1541C31.0564 81.1305 35.1638 85.2579 40.1289 85.2579C45.094 85.2579 49.2135 81.1345 49.2135 76.1541V13.8591Z" fill="#F8A91F"/>
<path d="M71.1868 54.1103C76.1519 54.1103 80.2714 49.9869 80.2714 45.0065C80.2714 40.0262 76.1519 35.9028 71.1868 35.9028H9.07251C4.10739 35.9028 0 40.0262 0 45.0065C0 49.9869 4.10739 54.1103 9.07251 54.1103H71.1868Z" fill="#F8A91F"/>
<path d="M24.5362 16.5636C20.9845 13.0062 15.3187 13.0062 11.767 16.5636C8.2274 20.121 8.2274 25.8088 11.767 29.3662L55.7363 73.4538C59.2759 77.0112 64.9537 77.0112 68.4933 73.4538C72.045 69.8964 72.045 64.2086 68.4933 60.6552L24.5362 16.5636Z" fill="#F8A91F"/>
<path d="M68.4933 29.3623C72.045 25.8049 72.045 20.1171 68.4933 16.5597C64.9537 13.0022 59.2759 13.0022 55.7363 16.5597L11.767 60.6513C8.2274 64.2088 8.2274 69.8965 11.767 73.4539C15.3187 77.0114 20.9845 77.0114 24.5362 73.4539L68.4933 29.3623Z" fill="#F8A91F"/>
<path d="M49.2135 131.136C49.2135 126.16 45.094 122.032 40.1289 122.032C35.1638 122.032 31.0564 126.155 31.0564 131.136V193.431C31.0564 198.407 35.1638 202.535 40.1289 202.535C45.094 202.535 49.2135 198.411 49.2135 193.431V131.136Z" fill="#46B27E"/>
<path d="M71.1868 171.388C76.1519 171.388 80.2714 167.264 80.2714 162.284C80.2714 157.304 76.1519 153.18 71.1868 153.18H9.07251C4.10739 153.18 0 157.304 0 162.284C0 167.264 4.10739 171.388 9.07251 171.388H71.1868Z" fill="#46B27E"/>
<path d="M24.5362 133.837C20.9845 130.279 15.3187 130.279 11.767 133.837C8.2274 137.394 8.2274 143.082 11.767 146.639L55.7363 190.727C59.2759 194.284 64.9537 194.284 68.4933 190.727C72.045 187.169 72.045 181.481 68.4933 177.928L24.5362 133.837Z" fill="#46B27E"/>
<path d="M68.4933 146.639C72.045 143.082 72.045 137.394 68.4933 133.837C64.9537 130.279 59.2759 130.279 55.7363 133.837L11.767 177.928C8.2274 181.486 8.2274 187.173 11.767 190.731C15.3187 194.288 20.9845 194.288 24.5362 190.731L68.4933 146.639Z" fill="#46B27E"/>
<path d="M49.2135 248.409C49.2135 243.433 45.094 239.305 40.1289 239.305C35.1638 239.305 31.0564 243.429 31.0564 248.409V310.704C31.0564 315.681 35.1638 319.808 40.1289 319.808C45.094 319.808 49.2135 315.685 49.2135 310.704V248.409Z" fill="#F8A91F"/>
<path d="M71.1868 288.661C76.1519 288.661 80.2714 284.537 80.2714 279.557C80.2714 274.576 76.1519 270.453 71.1868 270.453H9.07251C4.10739 270.453 0 274.576 0 279.557C0 284.537 4.10739 288.661 9.07251 288.661H71.1868Z" fill="#F8A91F"/>
<path d="M24.5362 251.114C20.9845 247.556 15.3187 247.556 11.767 251.114C8.2274 254.671 8.2274 260.359 11.767 263.916L55.7363 308.004C59.2759 311.561 64.9537 311.561 68.4933 308.004C72.045 304.446 72.045 298.759 68.4933 295.205L24.5362 251.114Z" fill="#F8A91F"/>
<path d="M68.4933 263.912C72.045 260.355 72.045 254.667 68.4933 251.109C64.9537 247.552 59.2759 247.552 55.7363 251.109L11.767 295.201C8.2274 298.759 8.2274 304.446 11.767 308.004C15.3187 311.561 20.9845 311.561 24.5362 308.004L68.4933 263.912Z" fill="#F8A91F"/>
</g>
<defs>
<clipPath id="clip0_162_12977">
<rect width="460" height="320" fill="white"/>
</clipPath>
</defs>
</svg>
