<svg width="209" height="130" viewBox="0 0 209 130" fill="none" xmlns="http://www.w3.org/2000/svg">
<g clip-path="url(#clip0_162_12942)">
<rect x="142" y="77.0422" width="60" height="60" rx="30" transform="rotate(-13.1056 142 77.0422)" fill="#44B27F"/>
<path d="M164.984 103.091C165.301 103.588 165.577 103.977 165.824 104.39C166.608 105.667 167.775 106.353 169.263 106.258C170.819 106.164 171.916 105.321 172.511 103.84C172.556 103.746 172.601 103.651 172.683 103.498C174.208 104.066 175.714 104.622 177.22 105.178C179.112 105.879 180.996 106.615 182.913 107.277C183.188 107.38 183.776 107.311 183.851 107.125C184.129 106.591 183.596 106.463 183.229 106.33C179.496 104.933 175.764 103.536 172.003 102.162C170.718 101.689 170.038 100.79 169.805 99.5012C169.475 97.6478 170.769 96.0707 172.64 96.1051C173.382 96.1171 174.149 96.2406 174.847 96.4978C178.848 97.9666 182.817 99.5103 186.802 100.983C190.291 102.269 191.42 104.742 190.99 109.022C190.646 112.375 188.856 114.924 186.004 116.662C182.743 118.663 179.189 119.474 175.4 118.846C171.121 118.13 168.263 115.589 166.961 111.511C166.101 108.824 165.631 106.012 164.952 103.099L164.984 103.091Z" fill="white"/>
<path d="M187.971 100.308C184.987 99.1728 182.153 98.1036 179.3 97.0222C177.936 96.5004 176.564 96.0141 175.224 95.453C174.909 95.325 174.59 94.9628 174.48 94.6359C173.302 90.7304 172.157 86.8174 171.014 82.9204C170.575 81.3944 171.173 80.2145 172.629 79.6909C174.085 79.1673 175.472 79.7172 176.012 81.1695C176.544 82.5899 176.933 84.0437 177.341 85.5098C178.272 88.7173 179.208 91.9407 180.123 95.1519C180.149 95.2634 180.175 95.3748 180.229 95.4629C180.401 95.8424 180.378 96.5361 181.027 96.3682C181.68 96.2162 181.373 95.6163 181.292 95.1986C180.491 90.5338 179.695 85.885 178.878 81.224C178.562 79.4343 179.351 78.2098 180.978 77.915C182.553 77.6154 183.729 78.4832 184.094 80.1943C184.209 80.6879 184.311 81.2012 184.394 81.7022C185.51 87.5023 186.645 93.3146 187.76 99.1147C187.842 99.465 187.888 99.8068 187.967 100.292L187.971 100.308Z" fill="white"/>
<path d="M171.633 103.171C171.35 104.193 170.721 104.877 169.705 105.13C168.678 105.403 167.682 105.165 167.097 104.311C166.05 102.842 165.092 101.32 164.221 99.7431C163.578 98.5668 164.128 97.1798 165.289 96.473C166.379 95.8165 167.842 96.0465 168.659 97.0313C168.807 97.232 168.976 97.5283 168.925 97.7416C168.436 100.256 169.339 102.043 171.649 103.167L171.633 103.171Z" fill="white"/>
<path d="M169.582 96.3802C169.064 96.0308 168.577 95.7413 168.143 95.3893C167.978 95.2597 167.823 95.0272 167.775 94.8202C167.436 93.506 168.22 92.1148 169.528 91.6761C170.835 91.2373 172.308 91.868 172.807 93.1451C173.024 93.7157 173.101 94.3356 173.238 94.9248C170.463 95.3357 170.749 95.5545 169.598 96.3765L169.582 96.3802Z" fill="white"/>
<rect x="100.784" y="-3" width="60" height="60" rx="30" transform="rotate(80.7439 100.784 -3)" fill="#F8A919"/>
<path d="M87.9009 24.243L90.9384 19.9897C93.1074 16.9527 92.47 12.7376 89.5184 10.5967C86.5667 8.45575 82.3983 9.18501 80.2293 12.2221L77.1918 16.4753L54.3902 34.8365C53.9883 35.1603 53.7997 35.6843 53.9044 36.184C54.0068 36.687 54.3852 37.0775 54.8745 37.2004L61.2862 38.7539L64.7837 44.3879C64.9623 44.6788 65.2465 44.885 65.5803 44.9656L71.9952 46.5216L75.4928 52.1555C75.5837 52.3022 75.7003 52.4271 75.8358 52.5254C76.0969 52.7148 76.4226 52.7997 76.7571 52.7598C77.2629 52.698 77.6928 52.349 77.8708 51.8678L87.9042 24.2454L87.9009 24.243ZM82.3711 13.7756C83.6739 11.9514 86.1734 11.5147 87.945 12.7997C89.7167 14.0847 90.0994 16.612 88.7966 18.4362L86.4354 21.7424L80.0099 17.0818L82.3711 13.7756ZM80.5784 20.8384L66.0007 41.2505L63.8159 37.7338L80.4198 20.7233L80.5751 20.836L80.5784 20.8384ZM82.7202 22.3919L82.8756 22.5046L72.1419 43.773L68.1393 42.8016L82.7169 22.3895L82.7202 22.3919ZM78.1722 19.093L78.2548 19.153L61.733 36.0768L58.1582 35.2089L78.1722 19.093ZM74.3657 45.2398L85.0438 24.0773L85.1232 24.1348L76.3141 48.378L74.3624 45.2374L74.3657 45.2398Z" fill="white"/>
<rect x="9.85168" y="53.4377" width="60" height="60" rx="30" transform="rotate(14.3312 9.85168 53.4377)" fill="#EC6198"/>
<path d="M42.5633 104.623C42.3929 104.266 42.1452 103.747 41.8385 103.102C48.3233 98.6541 49.4604 88.6204 49.5055 88.1803C49.531 87.9253 49.388 87.6788 49.1511 87.5826C48.7711 87.4261 40.6701 84.1204 33.8952 86.5098C33.5848 85.864 33.2789 85.2312 32.9787 84.6077C34.7331 83.9744 36.152 82.5145 36.647 80.5769C37.4413 77.4678 35.5584 74.2928 32.4493 73.4985C30.8093 73.0795 29.156 73.4099 27.8399 74.2661C26.1497 71.4691 21.7879 70.0577 19.3226 71.5196C16.8433 72.9899 15.9923 77.5305 17.6684 80.3516C18.38 81.5516 22.8415 87.814 26.5546 92.9897C23.9619 97.5093 23.3865 102.568 23.3552 102.877C23.3296 103.132 23.4727 103.378 23.7096 103.475C23.8564 103.536 25.1403 104.062 27.0555 104.551C29.2721 105.118 32.3305 105.63 35.4332 105.317C36.2355 106.425 36.8558 107.285 37.2228 107.787C36.5105 108.342 36.2996 109.353 36.774 110.148C37.0288 110.578 37.435 110.864 37.885 110.979C38.335 111.094 38.8287 111.037 39.2583 110.783L44.2122 107.845C44.6278 107.599 44.9231 107.203 45.0428 106.734C45.1625 106.265 45.0933 105.776 44.8469 105.361C44.3725 104.566 43.3844 104.262 42.5596 104.622L42.5633 104.623ZM35.5211 80.2853C35.1838 81.6055 34.3042 82.6446 33.1859 83.2384C32.9182 82.2549 32.9415 80.9851 33.2673 79.7095C33.5932 78.4339 34.1855 77.3095 34.8885 76.574C35.585 77.6314 35.8584 78.9651 35.5211 80.2853ZM34.1334 75.6838C33.2537 76.5683 32.5262 77.9117 32.1405 79.4216C31.7547 80.9316 31.7487 82.4592 32.0963 83.6573C31.3823 83.8315 30.6198 83.8387 29.8611 83.6449C29.1025 83.4511 28.4369 83.079 27.8939 82.5837C28.7735 81.6992 29.501 80.3558 29.8868 78.8459C30.2725 77.3359 30.2785 75.8083 29.9309 74.6102C30.645 74.436 31.4075 74.4288 32.1661 74.6226C32.9248 74.8164 33.5904 75.1885 34.1334 75.6838ZM28.8386 75.0244C29.1063 76.008 29.083 77.2777 28.7572 78.5533C28.4313 79.8289 27.839 80.9533 27.136 81.6889C26.4395 80.6314 26.1661 79.2978 26.5034 77.9775C26.8407 76.6573 27.7203 75.6182 28.8386 75.0244ZM18.6685 79.7554C17.3367 77.5095 18.0008 73.6541 19.9151 72.5188C21.8295 71.3836 25.531 72.6502 26.8628 74.896C26.8822 74.9287 26.9007 74.9651 26.9228 75.0024C26.1967 75.7202 25.6427 76.6325 25.3719 77.6924C24.5776 80.8015 26.4604 83.9765 29.5695 84.7708C30.3282 84.9646 31.0924 84.9974 31.8247 84.8913C32.1489 85.5605 32.4805 86.2474 32.8177 86.9437C32.436 87.1195 32.058 87.3121 31.6891 87.5309C29.8168 88.6412 28.3583 90.2098 27.2202 91.9198C22.2334 84.9686 19.1992 80.6556 18.6713 79.7601L18.6685 79.7554ZM24.5736 102.558C24.8801 100.521 26.4882 91.9625 32.2817 88.5301C38.076 85.0939 46.3534 87.787 48.288 88.4952C47.9815 90.5324 46.3734 99.091 40.58 102.523C34.7856 105.96 26.5082 103.267 24.5736 102.558ZM43.6234 106.847L38.6695 109.784C38.3613 109.967 37.9597 109.865 37.7769 109.556C37.5942 109.248 37.6968 108.847 38.005 108.664L38.3598 108.453C38.4999 108.37 38.5993 108.229 38.6317 108.071C38.6652 107.909 38.6278 107.745 38.5317 107.61C38.5317 107.61 37.8486 106.671 36.7403 105.132C38.1483 104.877 39.5368 104.42 40.8411 103.703C41.4342 104.948 41.7851 105.684 41.7851 105.684C41.8542 105.832 41.9849 105.941 42.1429 105.989C42.3019 106.034 42.4686 106.017 42.6087 105.934L42.9636 105.723C43.2661 105.547 43.6789 105.653 43.8561 105.951C43.9696 106.143 43.9585 106.326 43.9281 106.445C43.8976 106.564 43.8195 106.73 43.6281 106.844L43.6234 106.847Z" fill="white"/>
<path d="M41.8135 92.9023L41.2209 91.9031L40.3058 92.4458L39.3422 90.821L38.3421 91.4173L39.3066 93.0384L38.1823 93.702L37.2215 92.0818L36.2186 92.6734L37.1821 94.2982L36.0616 94.9628L35.097 93.3416L34.0978 93.9342L35.0586 95.5544L33.9371 96.2226L32.9735 94.5977L31.9734 95.194L32.9379 96.8151L31.8136 97.4787L30.8528 95.8585L29.8499 96.4501L30.8135 98.075L29.8983 98.6177L30.4909 99.6169L31.406 99.0742L32.3696 100.699L33.3697 100.103L32.4052 98.4816L33.5305 97.8143L34.4903 99.4382L35.4932 98.8466L34.5297 97.2218L35.6539 96.5582L36.6148 98.1784L37.6139 97.5859L36.6541 95.962L37.7747 95.2974L38.7383 96.9223L39.7384 96.326L38.7739 94.7049L39.8991 94.0376L40.859 95.6615L41.8619 95.0699L40.8983 93.445L41.8135 92.9023Z" fill="white"/>
</g>
<defs>
<clipPath id="clip0_162_12942">
<rect width="209" height="130" fill="white"/>
</clipPath>
</defs>
</svg>
