<svg width="60" height="60" viewBox="0 0 60 60" fill="none" xmlns="http://www.w3.org/2000/svg">
<g clip-path="url(#clip0_162_13035)">
<rect x="-4" y="5.58398" width="60" height="60" rx="30" transform="rotate(-9.19135 -4 5.58398)" fill="#D62B58"/>
<path d="M19.3853 23.788L18.9792 21.2783L22.1278 20.7688L22.5339 23.2786L22.5593 23.4354L22.61 23.7491C23.2953 27.9843 22.0407 32.2114 19.349 35.5444C17.8711 37.3932 16.0276 38.9792 13.9505 40.1201L13.4429 36.9829C14.7582 36.1262 15.8907 35.1382 16.8151 33.8618C18.9786 31.2583 20.0199 27.7095 19.4615 24.2586L19.4107 23.9449L19.3853 23.788ZM35.1282 21.2407L34.7221 18.731L37.8706 18.2215L38.2767 20.7312L38.3021 20.8881L38.3529 21.2018C38.9113 24.6527 40.9932 27.5351 43.8928 29.4804C45.147 30.2432 46.5588 30.9806 48.0771 31.3788L48.5848 34.5159C46.0964 34.1137 43.8468 33.19 42.0187 31.8762C38.4133 29.5622 35.8896 25.9464 35.2043 21.7113L35.1536 21.3976L35.1282 21.2407ZM14.8135 45.4533C18.282 43.9262 21.2834 41.509 23.579 38.7231C25.321 36.5096 26.5653 34.2157 27.2612 31.5277C28.3783 33.4395 29.6021 35.0121 31.1407 36.5337C31.9889 34.7868 32.6289 32.7517 33.2435 30.5597C34.7262 32.7342 36.6559 34.6755 39.007 36.2267C42.064 38.1465 45.6746 39.4939 49.4477 39.8491L48.9401 36.7119C45.9541 36.2293 43.2068 35.2252 40.8557 33.674C36.8846 31.0973 34.1274 27.0364 33.3659 22.3307L31.2339 9.15458L28.0854 9.66405L30.2174 22.8401C30.5981 25.193 30.5573 27.936 30.2829 30.2339C29.1658 28.3221 28.3941 25.5496 28.0134 23.1968L25.8814 10.0207L22.7328 10.5302L24.8648 23.7062C25.6262 28.412 24.1329 33.1606 21.3345 36.8327C19.5925 39.0462 17.3021 40.8655 14.6207 42.2652L15.1283 45.4023L14.8135 45.4533ZM27.8399 36.102C27.2304 37.3274 26.4381 38.4214 25.4884 39.5409C22.7967 42.8738 19.3484 45.5243 15.0926 47.1787L15.5749 50.159C20.5924 48.2204 24.9345 45.1033 28.1798 41.1979C28.84 40.2863 29.5256 39.5315 30.0031 38.4884L29.8456 38.5139C29.089 37.8315 28.4644 36.9668 27.8399 36.102ZM33.045 38.3181C33.8016 39.0005 34.6902 39.5006 35.4469 40.183C39.6007 42.8911 44.7297 44.6367 50.2345 44.7117L49.7523 41.7314C45.192 41.5035 40.9263 40.1012 37.4783 37.7617C36.3815 36.9734 35.2846 36.1851 34.3452 35.3713C34.0252 36.3889 33.6798 37.2496 33.177 38.1358C33.177 38.1358 33.0196 38.1613 33.045 38.3181Z" fill="white"/>
</g>
<defs>
<clipPath id="clip0_162_13035">
<rect width="60" height="60" fill="white"/>
</clipPath>
</defs>
</svg>
