<svg width="60" height="60" viewBox="0 0 60 60" fill="none" xmlns="http://www.w3.org/2000/svg">
<g clip-path="url(#clip0_162_13022)">
<rect x="8.21777" y="-7" width="60" height="60" rx="30" transform="rotate(14.6923 8.21777 -7)" fill="#F8A919"/>
<path d="M49.4841 22.8784C47.9715 20.0322 45.4109 17.9965 42.2551 17.169C39.8954 16.5503 37.5444 16.7246 35.2601 17.707C34.1106 18.1963 33.0024 18.8825 31.9575 19.7403C31.4679 18.4801 30.839 17.3385 30.0775 16.3481C28.5691 14.3712 26.6061 13.0658 24.2465 12.4471C21.0906 11.6196 17.8644 12.1226 15.146 13.8749C12.4643 15.6058 10.496 18.392 9.61358 21.7575C8.73114 25.123 9.16371 28.7248 11.0539 32.7863C12.7458 36.4237 15.4975 40.3855 18.6884 44.974C19.7769 46.5463 21.0155 48.3129 22.2855 50.1963C22.6209 50.6873 23.1284 51.053 23.7075 51.2048C24.2865 51.3567 24.9082 51.287 25.4413 51.0237C27.472 50.0058 29.422 49.0597 31.1381 48.2384C36.1698 45.8058 40.526 43.7077 43.7705 41.3646C47.4103 38.7531 49.5317 35.914 50.437 32.4615C51.3423 29.009 50.9898 25.6918 49.4841 22.8784Z" fill="#F6F6F6"/>
</g>
<defs>
<clipPath id="clip0_162_13022">
<rect width="60" height="60" fill="white"/>
</clipPath>
</defs>
</svg>
