<svg width="60" height="60" viewBox="0 0 60 60" fill="none" xmlns="http://www.w3.org/2000/svg">
<g clip-path="url(#clip0_162_13026)">
<rect x="7.99023" y="-6" width="60" height="60" rx="30" transform="rotate(13.4838 7.99023 -6)" fill="#F8A919"/>
<path d="M16.8844 27.5814C16.9456 28.1676 17.0175 28.6388 17.0539 29.1183C17.1833 30.612 17.9198 31.747 19.2935 32.3285C20.7269 32.9412 22.0845 32.6783 23.2798 31.6199C23.3624 31.5557 23.4451 31.4914 23.5869 31.3909C24.6968 32.5817 25.7946 33.7528 26.8924 34.9239C28.2706 36.3976 29.6254 37.8993 31.0431 39.3489C31.2435 39.565 31.8006 39.7658 31.95 39.6335C32.4383 39.2799 32.0185 38.927 31.7501 38.6441C29.0374 35.724 26.3247 32.804 23.5764 29.8921C22.6389 28.894 22.4339 27.7856 22.8024 26.529C23.3362 24.7236 25.1998 23.8927 26.8578 24.761C27.5154 25.1036 28.1463 25.5575 28.6551 26.0998C31.5758 29.2043 34.4335 32.3609 37.3383 35.4616C39.8824 38.1731 39.7857 40.8903 37.4852 44.5249C35.6767 47.3697 32.935 48.8474 29.6068 49.1253C25.7953 49.4555 22.2538 48.5896 19.147 46.3315C15.6408 43.776 14.2226 40.2248 14.8837 35.9954C15.3168 33.2075 16.155 30.4831 16.8526 27.5737L16.8844 27.5814Z" fill="white"/>
<path d="M38.6854 35.3812C36.5254 33.0307 34.4697 30.8062 32.4019 28.5619C31.4161 27.4849 30.4067 26.4359 29.4603 25.3347C29.2357 25.0791 29.1123 24.6124 29.1605 24.2709C29.8554 20.2513 30.582 16.2392 31.3048 12.2431C31.5951 10.6819 32.6581 9.89455 34.1945 10.078C35.7308 10.2615 36.725 11.374 36.5574 12.9142C36.3975 14.4226 36.0945 15.8967 35.8035 17.3904C35.2008 20.6756 34.5942 23.9767 33.9755 27.258C33.9488 27.3693 33.9221 27.4805 33.9311 27.5835C33.9153 28 33.5841 28.61 34.2397 28.7504C34.8915 28.9066 34.885 28.2325 35.0001 27.823C36.372 23.2932 37.7401 18.7794 39.0962 14.2458C39.6147 12.504 40.8685 11.7623 42.4552 12.2268C43.998 12.664 44.6608 13.9661 44.2212 15.6596C44.103 16.1525 43.9651 16.6574 43.8151 17.1426C42.2164 22.8285 40.6298 28.5341 39.0311 34.22C38.9472 34.5697 38.8353 34.8959 38.6892 35.3652L38.6854 35.3812Z" fill="white"/>
<path d="M22.7958 30.6295C22.0856 31.4175 21.2164 31.7472 20.1951 31.5191C19.1541 31.3031 18.3706 30.6444 18.2298 29.6188C17.951 27.837 17.7751 26.0464 17.7022 24.2468C17.6536 22.907 18.7662 21.9129 20.1213 21.8007C21.3892 21.7012 22.5951 22.562 22.8846 23.8083C22.9267 24.0537 22.9458 24.3946 22.8047 24.5625C21.2421 26.5919 21.2495 28.5943 22.8117 30.6333L22.7958 30.6295Z" fill="white"/>
<path d="M24.001 23.6381C23.6944 23.0939 23.3884 22.6171 23.1575 22.1078C23.0684 21.9183 23.034 21.641 23.0836 21.4343C23.3682 20.1072 24.6919 19.2141 26.0579 19.4071C27.4238 19.6001 28.4586 20.8234 28.333 22.1887C28.2715 22.796 28.063 23.3849 27.922 23.9731C25.2568 23.0987 25.4145 23.4223 24.0169 23.642L24.001 23.6381Z" fill="white"/>
</g>
<defs>
<clipPath id="clip0_162_13026">
<rect width="60" height="60" fill="white"/>
</clipPath>
</defs>
</svg>
