<svg width="85" height="85" viewBox="0 0 85 85" fill="none" xmlns="http://www.w3.org/2000/svg">
<circle cx="42.364" cy="42.3386" r="42.3386" fill="#44B27F"/>
<path fill-rule="evenodd" clip-rule="evenodd" d="M68.2301 61.5706H43.9219V23.5541L68.2301 19.2886V61.5706ZM65.4289 28.1042H61.7863V32.4254H65.4289V28.1042ZM61.7863 36.3033H65.4289V40.6245H61.7863V36.3033ZM65.4289 44.5023H61.7863V48.8235H65.4289V44.5023ZM61.7863 52.6992H65.4289V57.0205H61.7863V52.6992ZM57.8983 28.1042H54.2556V32.4254H57.8983V28.1042ZM54.2556 36.3033H57.8983V40.6245H54.2556V36.3033ZM57.8983 44.5023H54.2556V48.8235H57.8983V44.5023ZM54.2556 52.6992H57.8983V57.0205H54.2556V52.6992ZM50.3653 28.1042H46.7227V32.4255H50.3653V28.1042ZM46.7227 36.3032H50.3653V40.6244H46.7227V36.3032ZM50.3653 44.5023H46.7227V48.8235H50.3653V44.5023ZM46.7227 52.6992H50.3653V57.0204H46.7227V52.6992Z" fill="white"/>
<path fill-rule="evenodd" clip-rule="evenodd" d="M16.7441 61.5706H36.4877V19.2886H16.7441V61.5706ZM24.3389 23.4964H20.0176V27.139H24.3389V23.4964ZM28.8955 23.4963H33.2167V27.139H28.8955V23.4963ZM24.3389 31.0518H20.0176V34.6944H24.3389V31.0518ZM28.8955 31.0518H33.2167V34.6944H28.8955V31.0518ZM24.3389 38.6072H20.0176V42.2499H24.3389V38.6072ZM28.8955 38.6073H33.2167V42.2499H28.8955V38.6073ZM24.3389 46.1647H20.0176V49.8073H24.3389V46.1647ZM28.8955 46.1647H33.2167V49.8073H28.8955V46.1647ZM24.3389 53.7202H20.0176V57.3628H24.3389V53.7202ZM28.8955 53.7202H33.2167V57.3628H28.8955V53.7202Z" fill="white"/>
<path fill-rule="evenodd" clip-rule="evenodd" d="M12.4707 60.9848H70.9177V64.6667H12.4707V60.9848Z" fill="white"/>
</svg>
