<svg width="85" height="85" viewBox="0 0 85 85" fill="none" xmlns="http://www.w3.org/2000/svg">
<circle cx="42.364" cy="42.3386" r="42.3386" fill="#D62B58"/>
<path d="M41.5215 12.8181C45.8463 12.5345 49.775 15.6232 50.8299 19.7662C50.8927 20.0134 50.9716 20.2818 50.9938 20.5367L51.0606 21.0315C51.6092 21.1275 52.1512 21.1018 52.7004 21.249C56.2413 22.1982 57.8246 26.4931 55.4564 29.4407C54.528 30.5958 55.323 30.666 56.313 31.4383C58.5638 33.195 58.8165 36.4671 57.3911 38.8112L57.2156 39.1012C56.3241 40.4544 56.5293 40.3539 57.8025 41.3998C62.0217 44.8647 60.0525 52.2024 54.7298 53.6371C52.5616 54.2215 50.3871 53.7448 48.5738 52.4194C46.99 54.0743 45.39 55.1577 43.0244 55.3324C42.2093 55.3929 42.4807 55.3499 42.4597 54.5289C42.4378 53.6699 42.339 46.9037 42.4729 46.6095C42.5107 46.5266 42.7888 46.3548 42.8711 46.2848L50.0408 40.0805C50.5162 39.6263 50.6873 39.3307 50.0094 38.9592C49.7899 39.0633 49.606 39.2296 49.4211 39.3849L42.9292 44.8795C42.7693 45.0009 42.5904 45.073 42.4541 45.2176L42.425 45.2494C42.3896 45.085 42.4178 44.8651 42.4195 44.6958L42.4235 38.9168C42.4235 38.4007 42.3759 33.0328 42.4563 32.906C42.5367 32.779 43.0524 32.4165 43.1991 32.2836L47.8989 28.0575C48.3732 27.5988 48.6775 27.4282 48.0121 26.8989C47.3294 27.1804 46.853 27.7643 46.3095 28.2453L43.1156 31.0656C42.9432 31.2148 42.5375 31.4615 42.4381 31.565L42.4056 24.9146C42.394 24.5842 42.3546 24.072 41.8612 24.171L41.8221 24.1821C41.6356 24.2532 41.3697 24.2667 41.3697 24.5139L41.3691 35.1869C41.268 35.0593 40.6263 34.5312 40.4532 34.3657L36.7735 30.8466C36.5022 30.5779 36.2548 30.3143 35.9407 30.0925C35.0612 30.5664 35.3865 30.8188 35.9288 31.3741L40.233 35.468C40.5508 35.7664 40.8522 36.1424 41.1924 36.4061C41.3958 36.564 41.3684 36.6468 41.3684 36.8805L41.369 48.9083C41.2566 48.8133 41.1214 48.7572 41.0074 48.6625L35.44 43.7528C34.9539 43.31 34.4969 42.8337 33.9148 42.5216C33.6858 42.7159 33.5725 42.9024 33.4396 43.1692C33.6399 43.6284 34.9184 44.6182 35.3389 44.9895L41.3252 50.2944C41.3848 50.5117 41.3667 50.7682 41.3676 50.9922L41.3532 55.4114L39.7958 55.2145C38.215 54.8716 36.1425 53.7461 35.2485 52.3561C34.3788 53.1109 33.2469 53.5278 32.1346 53.7661L31.6925 53.8372C27.3752 54.5281 23.5097 50.5361 23.6605 46.3057C23.7237 44.5376 24.3863 42.7698 25.7091 41.563L26.4409 40.9473C26.5776 40.8387 26.8623 40.6701 26.9475 40.5199C27.2383 40.006 26.5986 39.2592 26.3772 38.8983C24.8915 36.4758 25.1482 33.2631 27.4502 31.4133C27.7311 31.1876 28.0563 31.023 28.3402 30.8034L28.3793 30.7729C29.0194 30.2793 28.4892 29.7921 28.1644 29.3441C25.8868 26.2025 27.7613 21.6035 31.5332 21.1233C32.7978 20.9624 32.5565 21.3969 32.7326 20.4505L32.9563 19.4947C34.0209 15.6768 37.5604 12.9692 41.5215 12.8181Z" fill="white"/>
<path d="M38.8789 66.5361C38.9286 66.3726 38.9441 66.1964 38.9789 66.0292L39.2293 64.6998C39.5862 62.6289 39.7786 60.5334 39.8755 58.435L39.9273 56.2244C40.7283 56.3724 41.5677 56.4371 42.3809 56.372L43.6677 56.1901C43.7438 56.1759 43.7492 56.1585 43.8132 56.1984L44.1364 62.2006C44.2774 63.7007 44.7263 65.1888 44.8455 66.5804" fill="white"/>
</svg>
