<svg width="332" height="266" viewBox="0 0 332 266" fill="none" xmlns="http://www.w3.org/2000/svg">
<mask id="mask0_164_769" style="mask-type:luminance" maskUnits="userSpaceOnUse" x="-29" y="0" width="361" height="266">
<path d="M332 0H-29V266H332V0Z" fill="white"/>
</mask>
<g mask="url(#mask0_164_769)">
<path d="M195.34 112.131C195.34 174.059 145.12 224.262 83.1712 224.262C21.2226 224.262 -29 174.062 -29 112.131C-29 50.2006 21.2199 0 83.1685 0C145.117 0 195.337 50.2032 195.337 112.131" fill="#F8A91F"/>
<path d="M271.901 61.6887L266.139 67.738C262.024 72.0582 262.191 78.919 266.513 83.0324C270.834 87.1457 277.697 86.9786 281.812 82.6584L287.574 76.6118L328.058 52.815C328.772 52.396 329.183 51.6083 329.119 50.7862C329.055 49.964 328.53 49.248 327.763 48.9377L317.746 44.9358L313.257 35.1285C313.024 34.622 312.61 34.2268 312.093 34.02L302.072 30.0154L297.584 20.2081C297.464 19.9535 297.302 19.7281 297.106 19.5424C296.727 19.1791 296.217 18.9616 295.671 18.9457C294.846 18.9219 294.079 19.3727 293.695 20.1047L271.898 61.6914L271.901 61.6887ZM278.679 79.6722C276.212 82.2633 272.092 82.3641 269.5 79.8977C266.908 77.4286 266.807 73.3126 269.274 70.7216L273.752 66.0222L283.157 74.9754L278.679 79.6749V79.6722ZM283.006 68.8545L310.652 39.8332L313.454 45.9515L283.234 69.072L283.006 68.8545ZM279.87 65.871L279.642 65.6535L301.266 34.3488L307.516 36.847L279.87 65.8683V65.871ZM286.524 72.2067L286.404 72.0927L316.475 49.0862L322.057 51.3166L286.524 72.2041V72.2067ZM297.984 31.4846L276.466 62.6355L276.35 62.5241L295.483 26.0214L297.984 31.4873V31.4846Z" fill="white"/>
<path d="M141.692 98.1918C138.376 89.9334 131.921 83.6242 123.506 80.4258C117.216 78.0336 110.698 77.8321 104.137 79.8238C100.826 80.8289 97.5897 82.3697 94.4699 84.4171C93.4989 80.8156 92.1008 77.5112 90.2942 74.5621C86.7154 68.7144 81.7119 64.5374 75.4245 62.1479C67.0094 58.9495 57.9868 59.3739 50.02 63.344C42.1488 67.269 35.9383 74.3606 32.5346 83.3086C29.0301 92.5218 29.2582 102.257 33.2456 113.956C36.8138 124.415 43.2206 136.098 50.6408 149.62C53.1744 154.237 56.0475 159.473 58.9922 165.005C59.7695 166.466 61.0536 167.598 62.6055 168.187C64.1548 168.776 65.866 168.781 67.4153 168.208C73.2942 166.028 78.9237 164.024 83.89 162.252C98.4227 157.075 110.971 152.604 120.593 147.154C131.351 141.065 137.991 133.939 141.496 124.726C144.899 115.778 144.971 106.352 141.697 98.1892" fill="#F6F6F6"/>
<mask id="mask1_164_769" style="mask-type:luminance" maskUnits="userSpaceOnUse" x="157" y="99" width="151" height="151">
<path d="M232.619 249.318C274.148 249.318 307.702 215.714 307.702 174.324C307.702 132.934 274.145 99.2446 232.619 99.2446C191.092 99.2446 157.528 132.846 157.528 174.236C157.528 215.627 191.175 249.318 232.619 249.318Z" fill="white"/>
</mask>
<g mask="url(#mask1_164_769)">
<path fill-rule="evenodd" clip-rule="evenodd" d="M155.726 174.237C155.726 131.852 190.098 97.4443 232.619 97.4443C275.143 97.4443 309.503 131.942 309.503 174.324C309.503 216.709 275.143 251.12 232.619 251.12C190.179 251.12 155.726 216.621 155.726 174.237ZM232.619 101.046C192.087 101.046 159.329 133.841 159.329 174.237C159.329 214.634 192.171 247.518 232.619 247.518C273.153 247.518 305.901 214.72 305.901 174.324C305.901 133.926 273.148 101.046 232.619 101.046Z" fill="#FBFBFB"/>
<path d="M283.359 232.322L290.795 224.888L254.89 189.03C271.026 171.091 279.892 148.04 279.892 123.922C279.892 70.1411 236.084 26.3877 182.235 26.3877C128.385 26.3877 84.5803 70.1411 84.5803 123.922C84.5803 147.39 93.0379 169.964 108.435 187.709C97.585 196.471 88.5942 207.605 82.3598 220.008C75.5179 233.621 72.0505 248.282 72.0505 263.584C72.0505 317.362 115.861 361.115 169.71 361.115C223.559 361.115 267.367 317.362 267.367 263.584C267.367 240.127 258.912 217.558 243.523 199.815C244.846 198.747 246.16 197.625 247.452 196.463L283.362 232.324L283.359 232.322ZM124.541 189.091C138.143 180.829 153.708 176.475 169.71 176.475C191.053 176.475 211.446 184.216 227.401 198.325C213.799 206.586 198.234 210.943 182.235 210.943C160.892 210.943 140.499 203.202 124.544 189.093L124.541 189.091ZM116.975 181.538C102.856 165.607 95.1018 145.21 95.1018 123.922C95.1018 75.9385 134.187 36.9031 182.232 36.9031C205.551 36.9031 227.478 45.9996 243.971 62.5191C260.39 78.9645 269.41 100.77 269.367 123.922C269.367 145.244 261.594 165.649 247.438 181.588L181.993 116.226L174.549 123.657L239.997 189.016C238.742 190.13 237.466 191.199 236.185 192.215C218.031 175.329 194.486 166.047 169.708 166.047C150.925 166.047 132.728 171.396 116.975 181.535V181.538ZM115.704 195.238C133.864 212.155 157.427 221.453 182.232 221.453C201.052 221.453 219.272 216.096 235.028 205.947C249.102 221.865 256.835 242.24 256.835 263.494C256.835 311.477 217.749 350.513 169.708 350.513C121.666 350.513 82.5721 311.477 82.5721 263.494C82.5721 236.671 94.627 211.882 115.704 195.238Z" fill="#46B27E"/>
<path fill-rule="evenodd" clip-rule="evenodd" d="M72.0479 26.3906H309.504V361.118H72.0479V26.3906ZM75.6505 29.9921V357.517H305.901V29.9921H75.6505Z" fill="#FBFBFB"/>
</g>
<path fill-rule="evenodd" clip-rule="evenodd" d="M151.824 174.237C151.824 129.696 187.944 93.543 232.619 93.543C277.303 93.543 313.406 129.793 313.406 174.324C313.406 218.864 277.298 255.021 232.619 255.021C188.021 255.021 151.824 218.773 151.824 174.237ZM232.619 104.947C194.241 104.947 163.232 135.997 163.232 174.237C163.232 212.482 194.329 243.617 232.619 243.617C270.998 243.617 301.998 212.566 301.998 174.324C301.998 136.075 270.987 104.947 232.619 104.947Z" fill="#46B27E"/>
</g>
</svg>
