<svg width="285" height="272" viewBox="0 0 285 272" fill="none" xmlns="http://www.w3.org/2000/svg">
<g clip-path="url(#clip0_177_15449)">
<path d="M166.196 97.415L202.67 91.2714C225.751 87.3837 247.821 103.036 251.668 125.874C252.592 131.362 252.401 136.579 251.273 141.65C251.298 141.798 251.146 141.824 251.171 141.971L122.536 163.639C111.072 165.57 99.2761 162.829 89.8872 156.175C80.3338 149.397 68.716 146.778 57.2508 148.709L15.857 155.681L-0.579984 58.0972L72.6713 45.7588C67.6839 27.9929 77.2757 9.44876 94.3934 2.90463L98.4141 2.22739L120.959 80.6344L166.198 97.4162L166.196 97.415Z" fill="#EC6198"/>
<path d="M130.296 83.3295L119.205 112.954L111.062 110.056L122.152 80.4313L130.296 83.3295Z" fill="white"/>
<path d="M149.139 90.6806L138.049 120.305L129.233 117.064L140.325 87.4376L149.139 90.6806Z" fill="white"/>
<path d="M166.819 97.4629L155.728 127.088L146.913 123.843L157.978 94.0714L166.819 97.4629Z" fill="white"/>
<path d="M57.0739 148.584C68.5391 146.653 80.3337 149.394 89.7226 156.048C99.2762 162.828 110.894 165.445 122.359 163.514L251.146 141.821C251.146 141.821 249.968 151.17 246.172 158.674C265.133 160.361 281.487 174.687 284.81 194.411L284.885 194.856L68.9963 231.22C47.2914 234.876 26.7324 220.245 23.0765 198.54C23.4952 198.318 23.9023 197.943 24.169 197.747L23.1286 197.922C23.1286 197.922 23.1038 197.775 22.8769 197.355L15.8326 155.534L57.0744 148.587L57.0739 148.584Z" fill="#46B27E"/>
<path d="M245.19 236.465C228.07 239.348 212.05 227.864 209.202 210.957C206.355 194.051 217.88 177.925 234.848 175.067C251.817 172.209 267.989 183.668 270.837 200.576C273.685 217.483 262.159 233.606 245.19 236.465Z" fill="white"/>
<path d="M242.867 222.675C233.495 224.253 224.472 217.994 222.874 208.503C221.275 199.013 227.597 190.17 237.121 188.566C246.645 186.962 255.516 193.245 257.114 202.736C258.561 212.252 252.251 221.094 242.867 222.675Z" fill="#EC6198"/>
<path d="M183.403 246.872C166.283 249.756 150.263 238.271 147.415 221.365C144.567 204.458 156.093 188.333 173.061 185.474C190.03 182.616 206.201 194.075 209.049 210.983C211.897 227.891 200.384 244.012 183.403 246.872Z" fill="white"/>
<path d="M181.08 233.081C171.708 234.66 162.685 228.4 161.086 218.91C159.488 209.419 165.81 200.576 175.334 198.972C184.858 197.368 193.729 203.651 195.327 213.142C196.786 222.656 190.464 231.5 181.08 233.081Z" fill="#EC6198"/>
<path d="M121.476 257.303C104.356 260.187 88.3363 248.703 85.4886 231.796C82.6408 214.89 94.1538 198.766 111.135 195.906C128.115 193.046 144.275 204.507 147.123 221.415C150.11 238.297 138.597 254.42 121.476 257.303Z" fill="white"/>
<path d="M60.1588 267.589C43.0384 270.472 27.0187 258.988 24.171 242.081C21.3233 225.175 32.8363 209.051 49.8171 206.191C66.7979 203.331 82.9572 214.792 85.8051 231.7C88.7925 248.583 77.2793 264.705 60.1588 267.589Z" fill="white"/>
<path d="M118.763 241.198C109.379 242.778 100.455 237.03 98.9648 228.184C97.4747 219.337 103.871 211.01 113.408 209.404C122.944 207.797 131.716 213.57 133.206 222.416C134.696 231.263 128.135 239.619 118.763 241.198Z" fill="#EC6198"/>
<path d="M57.4454 251.483C48.0611 253.064 39.1373 247.315 37.6472 238.469C36.1571 229.623 42.5537 221.295 52.09 219.689C61.6263 218.082 70.398 223.855 71.8881 232.701C73.3781 241.548 66.8175 249.904 57.4454 251.483Z" fill="#EC6198"/>
</g>
<defs>
<clipPath id="clip0_177_15449">
<rect width="285" height="272" fill="white"/>
</clipPath>
</defs>
</svg>
