<svg width="34" height="36" viewBox="0 0 34 36" fill="none" xmlns="http://www.w3.org/2000/svg">
<path d="M10.6187 27.1303L9.72306 22.3491C9.68592 22.1508 9.63708 21.9548 9.56485 21.763C9.21901 20.8861 8.50512 20.5001 7.59273 20.6699L4.92573 21.1665C4.63329 21.2209 4.39125 21.3505 4.19007 21.569C3.71893 22.0912 3.60371 22.704 3.73041 23.3803C4.33767 26.6223 4.94494 29.8642 5.55002 33.0945C5.59371 33.3277 5.67685 33.5777 5.78854 33.7863C6.13889 34.4934 6.79507 34.8298 7.48521 34.7014L10.2809 34.1808C10.702 34.1024 11.0245 33.8855 11.2463 33.5183C11.5537 33.0267 11.5979 32.4874 11.4909 31.916C11.1916 30.3184 10.8923 28.7207 10.5931 27.123L10.6187 27.1303ZM19.7701 13.8167C19.9292 13.2441 19.9786 12.6677 19.9673 12.0905C19.944 10.9966 19.8834 9.89756 19.8133 8.81239C19.7403 7.58293 19.5461 6.35193 19.1902 5.16307C19.0583 4.71698 18.8912 4.27748 18.602 3.89686C18.2807 3.47395 17.8613 3.23823 17.324 3.27793C17.0484 3.29303 16.7815 3.35479 16.5285 3.42603C16.1491 3.53288 15.9077 3.79507 15.8094 4.17541C15.7728 4.30292 15.7361 4.43042 15.7368 4.56305C15.7211 5.06078 15.717 5.55631 15.7247 6.04968C15.7526 6.97376 15.8133 7.87963 15.8528 8.80154C15.9061 9.92604 15.8124 11.0417 15.5602 12.1507C15.1019 14.0342 14.3813 15.8097 13.489 17.5085C12.7855 18.8584 12.0361 20.1565 11.0016 21.2904C10.9709 21.3203 10.9606 21.3946 10.9693 21.4412C11.013 21.6745 11.094 21.9128 11.1377 22.146L12.7301 30.6474C12.7563 30.7873 12.8089 30.8741 12.9294 30.9361C13.1611 31.074 13.3832 31.2258 13.6126 31.352C14.2242 31.7088 14.8284 32.0911 15.459 32.4202C16.1568 32.7851 16.909 32.9226 17.7044 32.7746C19.5409 32.4326 21.3722 32.1279 23.2013 31.8114L23.1926 31.7648C24.4676 31.5274 25.731 31.2922 27.0177 31.0526C27.7546 30.9154 28.4893 30.7666 29.2175 30.5827C29.7725 30.4432 30.1207 30.0404 30.2863 29.5027C30.5904 28.541 29.9705 27.5582 28.9809 27.3804C28.8179 27.3504 28.6345 27.276 28.4935 27.1695C28.267 26.9944 28.2167 26.7262 28.2973 26.4457C28.3853 26.1396 28.5996 25.9911 28.9015 25.9228C30.0274 25.6649 30.562 24.3827 29.9326 23.4137C29.6464 22.9843 29.2482 22.7326 28.7402 22.6703C28.3184 22.6161 28.0402 22.2937 28.0777 21.9126C28.0984 21.5708 28.3537 21.3182 28.7376 21.2346C29.5286 21.0632 30.0744 20.3581 30.0363 19.5084C30.0018 18.7424 29.3685 18.0759 28.5996 17.9777C28.1917 17.933 27.9222 17.6573 27.9086 17.2616C27.892 16.9147 28.1503 16.6131 28.548 16.5391C29.4092 16.3546 29.9852 15.4871 29.8097 14.6147C29.6458 13.74 28.7851 13.1521 27.9174 13.3016C27.0167 13.4692 26.0926 13.6413 25.1919 13.809L19.768 13.8051L19.7701 13.8167Z" fill="#D62B58"/>
<path d="M11.8661 31.8575C11.7176 31.0645 11.5669 30.2599 11.4161 29.4552C11.2654 28.6506 11.1169 27.8575 10.9661 27.0529L10.2526 27.1857C10.4011 27.9787 10.5519 28.7834 10.7026 29.5881C10.8533 30.3927 11.0019 31.1857 11.1526 31.9904L11.8661 31.8575ZM11.5738 33.7222C11.9478 33.1336 11.9841 32.4872 11.8661 31.8575L11.1526 31.9904C11.2487 32.5035 11.2103 32.945 10.9557 33.3304L11.5738 33.7222ZM10.3612 34.5514C10.8876 34.4534 11.295 34.1724 11.5738 33.7222L10.9579 33.342C10.791 33.6145 10.5555 33.779 10.228 33.84L10.3612 34.5514ZM7.56557 35.0719L10.3612 34.5514L10.228 33.84L7.43231 34.3605L7.56557 35.0719ZM5.47943 33.9517C5.9006 34.7785 6.69997 35.233 7.56557 35.0719L7.43231 34.3605C6.92933 34.4541 6.42366 34.2104 6.13461 33.6366L5.4816 33.9633L5.47943 33.9517ZM5.20953 33.1572C5.26196 33.4371 5.36118 33.7083 5.47943 33.9517L6.13024 33.6133C6.0368 33.4376 5.96021 33.2226 5.92307 33.0243L5.20953 33.1572ZM3.38992 23.443C3.99718 26.685 4.60445 29.9269 5.20953 33.1572L5.92307 33.0243C5.31581 29.7824 4.70854 26.5404 4.10346 23.3102L3.38992 23.443ZM3.93752 21.3257C3.3647 21.9513 3.25012 22.6967 3.38992 23.443L4.10346 23.3102C3.99206 22.7154 4.09402 22.2258 4.46566 21.8187L3.92583 21.3279L3.93752 21.3257ZM4.87064 20.814C4.50802 20.8815 4.18845 21.0496 3.93534 21.314L4.46566 21.8187C4.61709 21.6577 4.78163 21.5667 5.00388 21.5253L4.87064 20.814ZM7.53764 20.3174L4.87064 20.814L5.00388 21.5253L7.67088 21.0288L7.53764 20.3174ZM9.9153 21.6368C9.72342 21.1294 9.40866 20.7415 8.97754 20.508C8.55813 20.2723 8.06402 20.2194 7.53764 20.3174L7.67088 21.0288C8.0569 20.9569 8.3807 21.0053 8.62402 21.141C8.86734 21.2768 9.08134 21.5144 9.22361 21.8862L9.90142 21.6273L9.9153 21.6368ZM10.0961 22.2789C10.0568 22.069 10.0036 21.8496 9.9153 21.6368L9.23968 21.9074C9.30535 22.0641 9.34981 22.2369 9.38476 22.4234L10.0983 22.2906L10.0961 22.2789ZM10.9917 27.0602L10.9874 27.0369L10.983 27.0135L10.9786 26.9902L10.9742 26.9669L10.9699 26.9436L10.9655 26.9202L10.9611 26.897L10.9568 26.8736L10.9524 26.8503L10.948 26.827L10.9437 26.8036L10.9393 26.7803L10.9349 26.757L10.9306 26.7337L10.9262 26.7103L10.9218 26.687L10.9175 26.6637L10.9131 26.6404L10.9087 26.617L10.9043 26.5937L10.9 26.5704L10.8956 26.5471L10.8912 26.5238L10.8869 26.5004L10.8825 26.4771L10.8781 26.4538L10.8738 26.4305L10.8694 26.4071L10.865 26.3838L10.8607 26.3605L10.8563 26.3372L10.8519 26.3139L10.8475 26.2905L10.8432 26.2672L10.8388 26.2439L10.8344 26.2206L10.8301 26.1972L10.8257 26.1739L10.8213 26.1506L10.817 26.1273L10.8126 26.1039L10.8082 26.0806L10.8039 26.0573L10.7995 26.0339L10.7951 26.0107L10.7908 25.9873L10.7864 25.964L10.782 25.9407L10.7776 25.9174L10.7733 25.894L10.7689 25.8707L10.7645 25.8474L10.7602 25.824L10.7558 25.8008L10.7514 25.7774L10.7471 25.7541L10.7427 25.7308L10.7383 25.7074L10.734 25.6841L10.7296 25.6608L10.7252 25.6375L10.7208 25.6141L10.7165 25.5908L10.7121 25.5675L10.7077 25.5442L10.7034 25.5208L10.699 25.4976L10.6946 25.4742L10.6903 25.4509L10.6859 25.4276L10.6815 25.4042L10.6772 25.3809L10.6728 25.3576L10.6684 25.3343L10.6641 25.3109L10.6597 25.2876L10.6553 25.2643L10.6509 25.241L10.6466 25.2177L10.6422 25.1943L10.6378 25.171L10.6335 25.1477L10.6291 25.1244L10.6247 25.101L10.6204 25.0777L10.616 25.0544L10.6116 25.0311L10.6073 25.0077L10.6029 24.9844L10.5985 24.9611L10.5942 24.9377L10.5898 24.9145L10.5854 24.8911L10.581 24.8678L10.5767 24.8445L10.5723 24.8212L10.5679 24.7978L10.5636 24.7745L10.5592 24.7512L10.5548 24.7278L10.5505 24.7046L10.5461 24.6812L10.5417 24.6579L10.5374 24.6346L10.533 24.6113L10.5286 24.5879L10.5243 24.5646L10.5199 24.5413L10.5155 24.5179L10.5112 24.4947L10.5068 24.4713L10.5024 24.448L10.498 24.4246L10.4937 24.4014L10.4893 24.378L10.4849 24.3547L10.4806 24.3314L10.4762 24.308L10.4718 24.2847L10.4675 24.2614L10.4631 24.2381L10.4587 24.2147L10.4544 24.1915L10.45 24.1681L10.4456 24.1448L10.4413 24.1215L10.4369 24.0981L10.4325 24.0748L10.4281 24.0515L10.4238 24.0282L10.4194 24.0048L10.415 23.9815L10.4107 23.9582L10.4063 23.9349L10.4019 23.9116L10.3976 23.8882L10.3932 23.8649L10.3888 23.8415L10.3845 23.8183L10.3801 23.7949L10.3757 23.7716L10.3714 23.7483L10.367 23.725L10.3626 23.7016L10.3582 23.6783L10.3539 23.655L10.3495 23.6316L10.3451 23.6084L10.3408 23.585L10.3364 23.5617L10.332 23.5384L10.3277 23.5151L10.3233 23.4917L10.3189 23.4684L10.3146 23.4451L10.3102 23.4217L10.3058 23.3985L10.3014 23.3751L10.2971 23.3518L10.2927 23.3285L10.2883 23.3052L10.284 23.2818L10.2796 23.2585L10.2752 23.2352L10.2709 23.2118L10.2665 23.1885L10.2621 23.1652L10.2578 23.1419L10.2534 23.1185L10.249 23.0953L10.2447 23.0719L10.2403 23.0486L10.2359 23.0253L10.2315 23.0019L10.2272 22.9786L10.2228 22.9553L10.2184 22.932L10.2141 22.9086L10.2097 22.8854L10.2053 22.862L10.201 22.8387L10.1966 22.8154L10.1922 22.792L10.1879 22.7687L10.1835 22.7454L10.1791 22.7221L10.1747 22.6987L10.1704 22.6754L10.166 22.6521L10.1616 22.6288L10.1573 22.6054L10.1529 22.5821L10.1485 22.5588L10.1442 22.5354L10.1398 22.5122L10.1354 22.4888L10.1311 22.4655L10.1267 22.4422L10.1223 22.4189L10.118 22.3955L10.1136 22.3722L10.1092 22.3489L10.1048 22.3255L10.1005 22.3023L10.0961 22.2789L10.0917 22.2556L10.0874 22.2323L10.083 22.209L10.0786 22.1856L10.0743 22.1623L10.0699 22.139L10.0655 22.1156L10.0612 22.0923L10.0568 22.069L10.0524 22.0457L10.048 22.0223L10.0437 21.9991L10.0393 21.9757L10.0349 21.9524L10.0306 21.9291L10.0262 21.9057L10.0218 21.8824L10.0175 21.8591L10.0131 21.8358L10.0087 21.8124L10.0044 21.7892L10 21.7658L9.99563 21.7425L9.99127 21.7192L9.98689 21.6958L9.98252 21.6725L9.97816 21.6492L9.97379 21.6259L9.96941 21.6025L9.96505 21.5793L9.96068 21.5559L9.95631 21.5326L9.95193 21.5092L9.94757 21.4859L9.9432 21.4626L9.93883 21.4392L9.93447 21.416L9.9301 21.3926L9.92572 21.3693L9.92136 21.346L9.91699 21.3227L9.91262 21.2993L9.90826 21.276L9.90388 21.2527L9.89951 21.2293L9.89515 21.2061L9.89078 21.1827L9.88641 21.1594L9.88205 21.1361L9.87767 21.1128L9.8733 21.0894L9.15976 21.2223L9.16413 21.2456L9.1685 21.269L9.17286 21.2922L9.17724 21.3156L9.18161 21.3389L9.18597 21.3622L9.19034 21.3855L9.19472 21.4089L9.19908 21.4322L9.20345 21.4555L9.20782 21.4789L9.21218 21.5021L9.21656 21.5255L9.22093 21.5488L9.22529 21.5721L9.22966 21.5954L9.23403 21.6188L9.23839 21.6421L9.24277 21.6654L9.24714 21.6888L9.25151 21.7121L9.25587 21.7354L9.26025 21.7587L9.26462 21.7821L9.26898 21.8053L9.27335 21.8287L9.27773 21.852L9.28208 21.8753L9.28646 21.8987L9.29083 21.922L9.29519 21.9453L9.29956 21.9686L9.30394 21.992L9.3083 22.0152L9.31267 22.0386L9.31704 22.0619L9.3214 22.0852L9.32578 22.1086L9.33015 22.1319L9.33451 22.1552L9.33888 22.1785L9.34325 22.2019L9.34761 22.2251L9.35199 22.2485L9.35636 22.2718L9.36073 22.2952L9.36509 22.3185L9.36947 22.3418L9.37384 22.3652L9.3782 22.3884L9.38257 22.4118L9.38695 22.4351L9.39131 22.4584L9.39568 22.4817L9.40005 22.5051L9.40441 22.5284L9.40878 22.5517L9.41316 22.5751L9.41752 22.5983L9.42189 22.6217L9.42626 22.645L9.43062 22.6683L9.435 22.6916L9.43937 22.715L9.44373 22.7383L9.4481 22.7616L9.45247 22.785L9.45683 22.8082L9.46121 22.8316L9.46558 22.8549L9.46995 22.8783L9.47431 22.9015L9.47869 22.9249L9.48306 22.9482L9.48742 22.9715L9.49179 22.9949L9.49617 23.0182L9.50053 23.0415L9.5049 23.0648L9.50927 23.0882L9.51363 23.1114L9.518 23.1348L9.52238 23.1581L9.52674 23.1814L9.53111 23.2048L9.53548 23.2281L9.53984 23.2514L9.54422 23.2747L9.54859 23.2981L9.55295 23.3213L9.55732 23.3447L9.5617 23.368L9.56605 23.3913L9.57043 23.4147L9.5748 23.438L9.57917 23.4613L9.58353 23.4846L9.58791 23.508L9.59228 23.5313L9.59664 23.5546L9.60101 23.5779L9.60539 23.6013L9.60975 23.6246L9.61412 23.6479L9.61849 23.6713L9.62285 23.6945L9.62722 23.7179L9.6316 23.7412L9.63596 23.7645L9.64033 23.7878L9.6447 23.8112L9.64906 23.8345L9.65344 23.8578L9.65781 23.8812L9.66217 23.9044L9.66654 23.9278L9.67092 23.9511L9.67528 23.9744L9.67965 23.9977L9.68402 24.0211L9.68839 24.0444L9.69275 24.0677L9.69713 24.0911L9.7015 24.1144L9.70586 24.1377L9.71023 24.161L9.71461 24.1844L9.71897 24.2076L9.72334 24.231L9.72771 24.2543L9.73207 24.2776L9.73645 24.301L9.74082 24.3243L9.74518 24.3476L9.74955 24.3709L9.75392 24.3943L9.75828 24.4175L9.76266 24.4409L9.76703 24.4642L9.77139 24.4875L9.77576 24.5109L9.78014 24.5342L9.7845 24.5575L9.78887 24.5808L9.79324 24.6042L9.79761 24.6275L9.80197 24.6508L9.80635 24.6741L9.81072 24.6975L9.81508 24.7208L9.81945 24.7441L9.82383 24.7674L9.82819 24.7907L9.83256 24.8141L9.83693 24.8374L9.84129 24.8607L9.84567 24.884L9.85004 24.9074L9.8544 24.9307L9.85877 24.954L9.86314 24.9774L9.8675 25.0006L9.87188 25.024L9.87625 25.0473L9.88061 25.0706L9.88498 25.0939L9.88936 25.1173L9.89372 25.1406L9.89809 25.1639L9.90246 25.1873L9.90683 25.2106L9.91119 25.2339L9.91557 25.2572L9.91994 25.2806L9.9243 25.3038L9.92867 25.3272L9.93305 25.3505L9.93741 25.3738L9.94178 25.3972L9.94615 25.4205L9.95051 25.4438L9.95489 25.4671L9.95926 25.4905L9.96362 25.5137L9.96799 25.5371L9.97236 25.5604L9.97672 25.5837L9.9811 25.6071L9.98547 25.6304L9.98983 25.6537L9.9942 25.677L9.99858 25.7004L10.0029 25.7236L10.0073 25.747L10.0117 25.7703L10.0161 25.7937L10.0204 25.817L10.0248 25.8403L10.0292 25.8636L10.0335 25.8869L10.0379 25.9103L10.0423 25.9336L10.0466 25.9569L10.051 25.9802L10.0554 26.0036L10.0597 26.0269L10.0641 26.0502L10.0685 26.0735L10.0728 26.0968L10.0772 26.1202L10.0816 26.1435L10.0859 26.1668L10.0903 26.1901L10.0947 26.2135L10.0991 26.2368L10.1034 26.2601L10.1078 26.2834L10.1122 26.3067L10.1165 26.3301L10.1209 26.3534L10.1253 26.3768L10.1296 26.4L10.134 26.4234L10.1384 26.4467L10.1427 26.47L10.1471 26.4933L10.1515 26.5167L10.1558 26.54L10.1602 26.5633L10.1646 26.5867L10.169 26.6099L10.1733 26.6333L10.1777 26.6566L10.1821 26.6799L10.1864 26.7033L10.1908 26.7266L10.1952 26.7499L10.1995 26.7732L10.2039 26.7966L10.2083 26.8198L10.2126 26.8432L10.217 26.8665L10.2214 26.8898L10.2257 26.9132L10.2301 26.9365L10.2345 26.9598L10.2389 26.9831L10.2432 27.0065L10.2476 27.0298L10.252 27.0531L10.2563 27.0764L10.2607 27.0998L10.2651 27.1231L10.2694 27.1464L10.2738 27.1697L10.2782 27.193L10.9917 27.0602ZM25.2091 13.4551L19.7852 13.4512L19.7876 14.1748L25.2115 14.1787L25.2091 13.4551ZM27.8761 12.9586C26.9637 13.1284 26.0514 13.2983 25.1507 13.466L25.2839 14.1773C26.1963 14.0075 27.097 13.8398 28.0094 13.6699L27.8761 12.9586ZM30.1849 14.5562C29.9861 13.495 28.9406 12.7604 27.8761 12.9586L28.0094 13.6699C28.6644 13.5479 29.333 14.0148 29.4736 14.7007L30.1871 14.5679L30.1849 14.5562ZM28.6379 16.8958C29.698 16.6743 30.3954 15.6152 30.1849 14.5562L29.4714 14.689C29.6002 15.3771 29.1575 16.0508 28.4929 16.1866L28.6262 16.898L28.6379 16.8958ZM28.3043 17.2476C28.3036 17.1149 28.3923 16.9416 28.6496 16.8937L28.5163 16.1822C27.9666 16.2846 27.5525 16.7238 27.5711 17.2754L28.3043 17.2476ZM28.6753 17.6129C28.5401 17.6019 28.4568 17.545 28.3991 17.4954C28.3531 17.4436 28.3144 17.3664 28.3043 17.2476L27.5711 17.2754C27.5862 17.5502 27.6833 17.8097 27.8768 18.003C28.0704 18.1962 28.321 18.3064 28.5937 18.3401L28.6753 17.6129ZM30.4298 19.4827C30.3859 18.5375 29.6029 17.7178 28.6753 17.6129L28.582 18.3423C29.1645 18.4149 29.6758 18.9473 29.6988 19.5223L30.432 19.4944L30.4298 19.4827ZM28.8369 21.5775C29.8151 21.3712 30.4612 20.4906 30.4298 19.4827L29.6966 19.5106C29.7276 20.1927 29.2959 20.7317 28.692 20.8683L28.8252 21.5797L28.8369 21.5775ZM28.4778 21.9219C28.4866 21.7754 28.5818 21.637 28.8486 21.5753L28.7154 20.864C28.189 20.962 27.7874 21.3384 27.7549 21.8755L28.4895 21.9197L28.4778 21.9219ZM28.8276 22.3033C28.5667 22.2674 28.4637 22.1055 28.4799 21.9336L27.7549 21.8755C27.7098 22.4752 28.1378 22.9507 28.7321 23.0211L28.8276 22.3033ZM30.2816 23.2153C29.9428 22.6991 29.4496 22.3926 28.8276 22.3033L28.7321 23.0211C29.1421 23.0775 29.4431 23.2628 29.6651 23.6076L30.2794 23.2036L30.2816 23.2153ZM29.0265 26.273C30.4075 25.9555 31.0483 24.4001 30.2816 23.2153L29.6651 23.6076C30.1572 24.3608 29.7523 25.3655 28.8581 25.5681L29.0147 26.2751L29.0265 26.273ZM28.6915 26.5526C28.7376 26.4112 28.8181 26.3238 29.0265 26.273L28.8581 25.5681C28.4626 25.6539 28.1189 25.8868 27.987 26.3458L28.6893 26.5409L28.6915 26.5526ZM28.7665 26.8886C28.681 26.82 28.638 26.7195 28.6893 26.5409L27.987 26.3458C27.877 26.7284 27.9461 27.162 28.3136 27.4435L28.776 26.8748L28.7665 26.8886ZM29.0939 27.0207C28.9565 26.998 28.8381 26.9477 28.7665 26.8886L28.3041 27.4574C28.4911 27.6157 28.7374 27.7026 28.9494 27.7355L29.0939 27.0207ZM30.6804 29.6097C31.0526 28.4301 30.2838 27.2336 29.0939 27.0207L28.9611 27.7333C29.7387 27.8782 30.2213 28.6452 29.9854 29.3891L30.6804 29.6097ZM29.3542 30.9307C30.0473 30.7534 30.4855 30.2494 30.6921 29.6075L29.9971 29.3869C29.8609 29.8226 29.5887 30.1147 29.1836 30.2142L29.3637 30.9169L29.3542 30.9307ZM27.1309 31.405C27.8679 31.2678 28.6143 31.1167 29.3542 30.9307L29.1741 30.228C28.4576 30.4097 27.7346 30.5564 26.986 30.6958L27.1192 31.4071L27.1309 31.405ZM23.3176 32.115C24.5809 31.8797 25.8559 31.6424 27.1426 31.4028L27.0094 30.6914C25.7343 30.9288 24.4593 31.1662 23.1843 31.4036L23.3176 32.115ZM23.6234 31.7442L23.619 31.7209L23.6147 31.6976L22.8989 31.8188L22.9033 31.8421L22.9076 31.8654L23.6234 31.7442ZM17.8293 33.1247C19.6541 32.7849 21.4854 32.4802 23.3263 32.1616L23.1931 31.4502C21.3639 31.7667 19.5326 32.0714 17.6961 32.4134L17.8293 33.1247ZM15.3464 32.7301C16.1115 33.1307 16.9403 33.2902 17.8293 33.1247L17.6961 32.4134C16.9825 32.5462 16.3189 32.4284 15.6861 32.0876L15.3464 32.7301ZM13.4861 31.6524C14.086 32.0114 14.7041 32.4031 15.3464 32.7301L15.6861 32.0876C15.0693 31.768 14.479 31.3952 13.8653 31.0267L13.4861 31.6524ZM12.8147 31.2343C12.9235 31.2985 13.0324 31.3628 13.1435 31.4386C13.2545 31.5145 13.3773 31.5882 13.4861 31.6524L13.8535 31.0289C13.7447 30.9647 13.6475 30.8983 13.5248 30.8246C13.4137 30.7487 13.2909 30.675 13.1682 30.6013L12.803 31.2365L12.8147 31.2343ZM12.4342 30.6897C12.4539 30.7947 12.4852 30.8974 12.5539 31.0053C12.6225 31.1132 12.7197 31.1796 12.8147 31.2343L13.1682 30.6013L13.1543 30.5918C13.1543 30.5918 13.1543 30.5919 13.1478 30.5569L12.4342 30.6897ZM10.8418 22.1883L10.8483 22.2234L10.8549 22.2583L10.8615 22.2933L10.868 22.3283L10.8746 22.3633L10.8811 22.3982L10.8877 22.4333L10.8942 22.4682L10.9008 22.5032L10.9073 22.5382L10.9139 22.5732L10.9204 22.6082L10.927 22.6432L10.9335 22.6782L10.9401 22.7131L10.9466 22.7481L10.9532 22.7831L10.9598 22.8181L10.9663 22.8531L10.9729 22.8881L10.9794 22.923L10.986 22.958L10.9925 22.993L10.9991 23.028L11.0056 23.063L11.0122 23.098L11.0187 23.1329L11.0253 23.1679L11.0318 23.2029L11.0384 23.2379L11.0449 23.2729L11.0515 23.3079L11.058 23.3428L11.0646 23.3778L11.0711 23.4128L11.0777 23.4478L11.0843 23.4828L11.0908 23.5178L11.0974 23.5528L11.1039 23.5878L11.1105 23.6228L11.117 23.6577L11.1236 23.6927L11.1301 23.7277L11.1367 23.7627L11.1432 23.7977L11.1498 23.8327L11.1563 23.8676L11.1629 23.9026L11.1694 23.9376L11.176 23.9726L11.1826 24.0076L11.1891 24.0426L11.1957 24.0775L11.2022 24.1125L11.2088 24.1475L11.2153 24.1825L11.2219 24.2175L11.2284 24.2525L11.235 24.2874L11.2415 24.3224L11.2481 24.3575L11.2546 24.3924L11.2612 24.4274L11.2677 24.4624L11.2743 24.4974L11.2809 24.5323L11.2874 24.5674L11.294 24.6023L11.3005 24.6373L11.3071 24.6723L11.3136 24.7073L11.3202 24.7422L11.3267 24.7773L11.3333 24.8122L11.3398 24.8472L11.3464 24.8822L11.3529 24.9172L11.3595 24.9521L11.366 24.9872L11.3726 25.0221L11.3792 25.0571L11.3857 25.0921L11.3923 25.1271L11.3988 25.162L11.4054 25.1971L11.4119 25.2321L11.4185 25.267L11.425 25.302L11.4316 25.337L11.4381 25.372L11.4447 25.407L11.4512 25.442L11.4578 25.4769L11.4644 25.512L11.4709 25.5469L11.4775 25.5819L11.484 25.6169L11.4906 25.6519L11.4971 25.6868L11.5037 25.7219L11.5102 25.7568L11.5168 25.7918L11.5233 25.8268L11.5299 25.8618L11.5364 25.8967L11.543 25.9318L11.5495 25.9667L11.5561 26.0017L11.5626 26.0367L11.5692 26.0717L11.5758 26.1067L11.5823 26.1417L11.5889 26.1767L11.5954 26.2116L11.602 26.2466L11.6085 26.2816L11.6151 26.3166L11.6216 26.3516L11.6282 26.3866L11.6347 26.4215L11.6413 26.4565L11.6478 26.4915L11.6544 26.5265L11.6609 26.5615L11.6675 26.5965L11.674 26.6314L11.6806 26.6664L11.6872 26.7014L11.6937 26.7364L11.7003 26.7714L11.7068 26.8064L11.7134 26.8413L11.7199 26.8763L11.7265 26.9113L11.733 26.9463L11.7396 26.9813L11.7461 27.0163L11.7527 27.0513L11.7592 27.0862L11.7658 27.1213L11.7723 27.1562L11.7789 27.1912L11.7855 27.2262L11.792 27.2612L11.7986 27.2961L11.8051 27.3312L11.8117 27.3661L11.8182 27.4011L11.8248 27.4361L11.8313 27.4711L11.8379 27.506L11.8444 27.5411L11.851 27.576L11.8575 27.611L11.8641 27.646L11.8706 27.681L11.8772 27.7159L11.8838 27.751L11.8903 27.7859L11.8969 27.8209L11.9034 27.856L11.91 27.8909L11.9165 27.9259L11.9231 27.9609L11.9296 27.9959L11.9362 28.0308L11.9427 28.0659L11.9493 28.1008L11.9558 28.1358L11.9624 28.1708L11.9689 28.2058L11.9755 28.2407L11.9821 28.2758L11.9886 28.3107L11.9952 28.3457L12.0017 28.3807L12.0083 28.4157L12.0148 28.4506L12.0214 28.4857L12.0279 28.5206L12.0345 28.5556L12.041 28.5906L12.0476 28.6256L12.0541 28.6605L12.0607 28.6956L12.0672 28.7306L12.0738 28.7655L12.0804 28.8005L12.0869 28.8355L12.0935 28.8705L12.1 28.9055L12.1066 28.9405L12.1131 28.9754L12.1197 29.0104L12.1262 29.0454L12.1328 29.0804L12.1393 29.1154L12.1459 29.1504L12.1524 29.1853L12.159 29.2203L12.1655 29.2553L12.1721 29.2903L12.1786 29.3253L12.1852 29.3603L12.1917 29.3952L12.1983 29.4302L12.2049 29.4652L12.2114 29.5002L12.218 29.5352L12.2245 29.5702L12.2311 29.6052L12.2376 29.6401L12.2442 29.6752L12.2507 29.7101L12.2573 29.7451L12.2638 29.7801L12.2704 29.8151L12.2769 29.85L12.2835 29.8851L12.29 29.92L12.2966 29.955L12.3032 29.99L12.3097 30.025L12.3163 30.0599L12.3228 30.095L12.3294 30.1299L12.3359 30.1649L12.3425 30.1999L12.349 30.2349L12.3556 30.2699L12.3621 30.3049L12.3687 30.3398L12.3752 30.3748L12.3818 30.4098L12.3883 30.4448L12.3949 30.4798L12.4015 30.5148L12.408 30.5498L12.4146 30.5847L12.4211 30.6198L12.4277 30.6547L12.4342 30.6897L12.4408 30.7247L12.4473 30.7597L12.4539 30.7946L12.4604 30.8297L12.467 30.8646L12.4735 30.8996L12.4801 30.9346L12.4867 30.9696L12.4932 31.0045L12.4998 31.0396L12.5063 31.0745L12.5129 31.1095L12.5194 31.1445L13.2329 31.0116L13.2264 30.9767L13.2198 30.9417L13.2133 30.9067L13.2067 30.8717L13.2002 30.8367L13.1936 30.8017L13.1871 30.7668L13.1805 30.7318L13.174 30.6968L13.1674 30.6618L13.1609 30.6268L13.1543 30.5918L13.1478 30.5569L13.1412 30.5219L13.1347 30.4869L13.1281 30.4519L13.1216 30.4169L13.115 30.3819L13.1084 30.347L13.1019 30.312L13.0953 30.2769L13.0888 30.242L13.0822 30.207L13.0757 30.172L13.0691 30.137L13.0626 30.1021L13.056 30.067L13.0495 30.0321L13.0429 29.9971L13.0364 29.9621L13.0298 29.9271L13.0233 29.8922L13.0167 29.8571L13.0101 29.8222L13.0036 29.7872L12.997 29.7522L12.9905 29.7172L12.9839 29.6823L12.9774 29.6472L12.9708 29.6123L12.9643 29.5773L12.9577 29.5423L12.9512 29.5073L12.9446 29.4724L12.9381 29.4373L12.9315 29.4023L12.925 29.3674L12.9184 29.3323L12.9118 29.2974L12.9053 29.2624L12.8987 29.2274L12.8922 29.1924L12.8856 29.1575L12.8791 29.1224L12.8725 29.0875L12.866 29.0525L12.8594 29.0175L12.8529 28.9825L12.8463 28.9476L12.8398 28.9125L12.8332 28.8776L12.8267 28.8426L12.8201 28.8076L12.8135 28.7726L12.807 28.7377L12.8004 28.7026L12.7939 28.6677L12.7873 28.6327L12.7808 28.5977L12.7742 28.5627L12.7677 28.5277L12.7611 28.4927L12.7546 28.4577L12.748 28.4228L12.7415 28.3878L12.7349 28.3528L12.7284 28.3178L12.7218 28.2828L12.7152 28.2478L12.7087 28.2129L12.7021 28.1779L12.6956 28.1429L12.689 28.1079L12.6825 28.0729L12.6759 28.0379L12.6694 28.003L12.6628 27.968L12.6563 27.933L12.6497 27.898L12.6432 27.863L12.6366 27.828L12.6301 27.7931L12.6235 27.7581L12.617 27.7231L12.6104 27.6881L12.6038 27.6531L12.5973 27.6181L12.5907 27.5831L12.5842 27.5481L12.5776 27.5131L12.5711 27.4782L12.5645 27.4432L12.558 27.4082L12.5514 27.3732L12.5449 27.3382L12.5383 27.3032L12.5318 27.2683L12.5252 27.2333L12.5187 27.1983L12.5121 27.1633L12.5056 27.1283L12.499 27.0933L12.4924 27.0584L12.4859 27.0234L12.4793 26.9884L12.4728 26.9534L12.4662 26.9184L12.4597 26.8834L12.4531 26.8485L12.4466 26.8135L12.44 26.7784L12.4335 26.7435L12.4269 26.7085L12.4204 26.6735L12.4138 26.6385L12.4073 26.6036L12.4007 26.5685L12.3941 26.5336L12.3876 26.4986L12.381 26.4636L12.3745 26.4286L12.3679 26.3937L12.3614 26.3586L12.3548 26.3237L12.3483 26.2887L12.3417 26.2537L12.3352 26.2187L12.3286 26.1838L12.3221 26.1487L12.3155 26.1138L12.3089 26.0788L12.3024 26.0438L12.2958 26.0088L12.2893 25.9739L12.2827 25.9388L12.2762 25.9038L12.2696 25.8689L12.2631 25.8339L12.2565 25.7989L12.25 25.7639L12.2434 25.7289L12.2369 25.6939L12.2303 25.659L12.2238 25.6239L12.2172 25.589L12.2106 25.554L12.2041 25.519L12.1975 25.484L12.191 25.4491L12.1844 25.414L12.1779 25.3791L12.1713 25.3441L12.1648 25.3091L12.1582 25.2741L12.1517 25.2392L12.1451 25.2041L12.1386 25.1692L12.132 25.1342L12.1255 25.0992L12.1189 25.0642L12.1123 25.0292L12.1058 24.9942L12.0992 24.9592L12.0927 24.9243L12.0861 24.8893L12.0796 24.8543L12.073 24.8193L12.0665 24.7843L12.0599 24.7493L12.0534 24.7144L12.0468 24.6794L12.0403 24.6444L12.0337 24.6094L12.0272 24.5744L12.0206 24.5394L12.0141 24.5045L12.0075 24.4695L12.001 24.4345L11.9944 24.3995L11.9878 24.3645L11.9813 24.3295L11.9747 24.2946L11.9682 24.2596L11.9616 24.2246L11.9551 24.1896L11.9485 24.1546L11.942 24.1196L11.9354 24.0846L11.9289 24.0497L11.9223 24.0146L11.9158 23.9797L11.9092 23.9447L11.9027 23.9097L11.8961 23.8747L11.8895 23.8398L11.883 23.8047L11.8764 23.7698L11.8699 23.7348L11.8633 23.6998L11.8568 23.6648L11.8502 23.6299L11.8437 23.5948L11.8371 23.5599L11.8306 23.5249L11.824 23.4899L11.8175 23.4549L11.8109 23.42L11.8044 23.3849L11.7978 23.35L11.7912 23.315L11.7847 23.2799L11.7781 23.245L11.7716 23.21L11.765 23.175L11.7585 23.14L11.7519 23.1051L11.7454 23.07L11.7388 23.0351L11.7323 23.0001L11.7257 22.9651L11.7192 22.9301L11.7126 22.8952L11.7061 22.8601L11.6995 22.8252L11.6929 22.7902L11.6864 22.7552L11.6798 22.7202L11.6733 22.6853L11.6667 22.6502L11.6602 22.6153L11.6536 22.5803L11.6471 22.5453L11.6405 22.5103L11.634 22.4754L11.6274 22.4403L11.6209 22.4053L11.6143 22.3704L11.6078 22.3354L11.6012 22.3004L11.5946 22.2654L11.5881 22.2304L11.5815 22.1954L11.575 22.1605L11.5684 22.1255L11.5619 22.0905L11.5553 22.0555L10.8418 22.1883ZM10.6756 21.4952C10.6997 21.6235 10.7354 21.7496 10.7689 21.864C10.7908 21.9806 10.8221 22.0834 10.8418 22.1883L11.5553 22.0555C11.5313 21.9272 11.5073 21.7989 11.4737 21.6845C11.4519 21.5679 11.4183 21.4535 11.387 21.3507L10.6778 21.5069L10.6756 21.4952ZM10.8032 21.0129C10.6993 21.1046 10.6744 21.2299 10.6714 21.2788C10.6589 21.3414 10.6603 21.4136 10.6735 21.4835L11.387 21.3507C11.387 21.3507 11.3935 21.3856 11.3957 21.3973C11.3957 21.3973 11.4001 21.4207 11.3789 21.4367C11.3811 21.4483 11.3525 21.4899 11.3218 21.5197L10.8127 20.999L10.8032 21.0129ZM13.2123 17.33C12.5183 18.666 11.7762 19.9386 10.782 21.0289L11.3218 21.5197C12.3753 20.3581 13.1533 19.0185 13.8568 17.6686L13.2123 17.33ZM15.2498 12.0509C14.8084 13.8951 14.0951 15.645 13.2123 17.33L13.8568 17.6686C14.7564 15.9443 15.496 14.1412 15.9594 12.2205L15.2498 12.0509ZM15.5387 8.81106C15.5876 9.91225 15.4991 10.9908 15.252 12.0626L15.9616 12.2322C16.2329 11.0955 16.32 9.94486 16.2719 8.78319L15.5387 8.81106ZM15.4106 6.0592C15.4362 6.97162 15.5035 7.91248 15.5387 8.81106L16.2719 8.78319C16.2397 7.83579 16.1738 6.96703 16.146 6.04295L15.4128 6.07088L15.4106 6.0592ZM15.4183 4.54923C15.4026 5.04696 15.4007 5.55416 15.4084 6.04753L16.1438 6.03127C16.1266 5.55174 16.1445 5.06572 16.1485 4.57017L15.4183 4.54923ZM15.499 4.07559C15.4624 4.2031 15.4206 4.36777 15.4183 4.54923L16.1463 4.55849C16.1449 4.48635 16.1647 4.39819 16.1992 4.25902L15.499 4.07559ZM16.4713 3.06186C15.9653 3.20433 15.6339 3.56775 15.499 4.07559L16.2109 4.25684C16.282 3.99017 16.4356 3.84086 16.6747 3.76014L16.4713 3.06186ZM17.3486 2.89852C17.0379 2.92016 16.7476 2.98627 16.4713 3.06186L16.6747 3.76014C16.9277 3.6889 17.1594 3.63368 17.3999 3.62511L17.3486 2.89852ZM18.9445 3.66341C18.5589 3.15592 18.0284 2.84436 17.3368 2.9007L17.3882 3.62728C17.783 3.60206 18.0891 3.75027 18.3484 4.10026L18.9328 3.66559L18.9445 3.66341ZM19.5896 5.03975C19.4533 4.57034 19.2658 4.0863 18.9423 3.65173L18.3579 4.08641C18.6011 4.41525 18.7572 4.79646 18.887 5.23089L19.5875 5.02808L19.5896 5.03975ZM20.2258 8.75903C20.1485 7.50625 19.9499 6.25193 19.5896 5.03975L18.8892 5.24257C19.2268 6.39861 19.4145 7.59462 19.497 8.81025L20.228 8.77071L20.2258 8.75903ZM20.382 12.0487C20.3565 10.9432 20.2959 9.8442 20.2258 8.75903L19.4948 8.79857C19.5649 9.88374 19.6138 10.985 19.6466 12.065L20.382 12.0487ZM20.1811 13.8843C20.357 13.2723 20.3977 12.6493 20.382 12.0487L19.6466 12.065C19.6653 12.6167 19.621 13.1559 19.4649 13.6798L20.1672 13.8748L20.1811 13.8843ZM5.85309 33.7494L6.18655 33.5908L5.8648 33.7472L5.85309 33.7494ZM25.2586 13.7838L25.254 14.1467L25.2891 14.1401L25.3242 14.1336L25.2564 13.7721L25.2586 13.7838ZM28.7718 22.6516L28.7182 23.0116L28.7601 22.6538L28.7718 22.6516ZM28.9332 25.9041L28.8655 25.5426L28.8537 25.5448L28.9215 25.9063L28.9332 25.9041ZM28.3407 26.4248L27.9943 26.3203L28.3524 26.4226L28.3407 26.4248ZM23.236 31.7439L23.1682 31.3824L22.8056 31.45L22.8733 31.8115L23.236 31.7439ZM23.2447 31.7906L23.3124 32.1521L23.675 32.0846L23.6073 31.7231L23.2447 31.7906ZM11.0333 21.2717L11.2889 21.5379L11.2867 21.5262L11.012 21.2878L11.0333 21.2717ZM17.3556 3.25924L17.3743 3.61779L17.3439 3.26142L17.3556 3.25924ZM18.6336 3.87817L18.3367 4.10243L18.6219 3.88035L18.6336 3.87817ZM19.8018 13.7981L19.4437 13.6958L19.3118 14.1548L19.795 14.1494L19.7996 13.7865L19.8018 13.7981Z" fill="#D62B58"/>
</svg>
