<svg width="310" height="445" viewBox="0 0 310 445" fill="none" xmlns="http://www.w3.org/2000/svg">
<g clip-path="url(#clip0_162_13972)">
<path d="M155.339 91.9983C69.6053 91.9983 0 161.338 0 246.716C0 332.094 69.6053 401.434 155.339 401.434C222.598 401.434 279.746 358.743 301.295 299.236V194.194C279.746 134.684 222.332 91.9958 155.339 91.9958V91.9983Z" fill="#46B27E"/>
<circle cx="155.5" cy="246.5" r="154.5" fill="#46B27E"/>
<path d="M152.218 209.72C210.45 209.72 257.665 162.69 257.665 104.678C257.665 46.6668 210.45 -0.365662 152.218 -0.365662C93.9859 -0.365662 46.7482 46.6643 46.7482 104.678C46.7482 162.693 93.9636 209.72 152.218 209.72Z" fill="#46B27E"/>
<path d="M156.746 80.8727H146.635V445.157H156.746V80.8727Z" fill="#EC6198"/>
<path d="M231.365 228.555C229.677 230.232 210.528 249.31 191.791 267.972C182.427 277.301 173.166 286.527 166.247 293.419C162.787 296.866 159.913 299.73 157.904 301.73C156.899 302.732 156.111 303.516 155.572 304.052C155.305 304.319 155.099 304.524 154.96 304.663C154.89 304.732 154.838 304.784 154.804 304.819C154.786 304.836 154.774 304.848 154.764 304.858C154.759 304.863 154.757 304.866 154.754 304.868C154.754 304.868 154.754 304.868 154.752 304.871C154.752 304.871 153.56 303.682 151.178 301.305C148.795 298.928 147.605 297.739 147.606 297.739C147.606 297.739 147.607 297.739 147.609 297.737C147.609 297.737 147.614 297.732 147.619 297.727C147.629 297.717 147.641 297.704 147.659 297.687C147.693 297.653 147.745 297.601 147.815 297.531C147.954 297.393 148.16 297.188 148.427 296.921C148.966 296.387 149.752 295.6 150.759 294.599C152.767 292.598 155.642 289.735 159.102 286.288C166.021 279.396 175.279 270.17 184.646 260.84C203.376 242.183 222.534 223.098 224.23 221.411L231.365 228.553V228.555Z" fill="#EC6198"/>
<path d="M86.4614 161.686L79.3155 168.818L147.635 236.867L154.781 229.734L86.4614 161.686Z" fill="#EC6198"/>
</g>
<defs>
<clipPath id="clip0_162_13972">
<rect width="310" height="445" fill="white"/>
</clipPath>
</defs>
</svg>
