<svg width="158" height="172" viewBox="0 0 158 172" fill="none" xmlns="http://www.w3.org/2000/svg">
<g clip-path="url(#clip0_162_13039)">
<path d="M66.346 137.457C62.7559 146.071 65.2517 155.95 72.4365 161.958C81.7295 161.144 89.3926 154.303 91.2888 145.165L112.455 45.7781L105.04 43.4867L66.346 137.457Z" fill="white"/>
<path d="M33.7216 118.676C27.9637 126.006 27.7938 136.188 33.2526 143.811C42.5059 145.444 51.6169 140.889 55.8317 132.571L101.882 42.409L93.9088 39.9448L33.7216 118.676Z" fill="white"/>
<path d="M-0.215016 115.454C8.25073 119.299 18.3217 117.295 24.4931 110.296L89.3148 38.523L84.0667 36.9012L-0.215016 115.454Z" fill="white"/>
<path d="M102.823 147.092C101.632 156.242 106.657 165.267 115.124 169.11C123.837 165.867 129.439 157.364 128.918 148.093L123.643 49.1318L115.757 46.6948L102.821 147.091L102.823 147.092Z" fill="white"/>
<path d="M128.018 50.5874L141.043 146.418C142.22 155.583 149.374 163.015 158.541 164.62L133.371 52.2417L128.018 50.5874Z" fill="white"/>
<path d="M123.039 1.86712L121.074 1.25981C107.67 -2.26808 93.8814 5.1373 89.4937 18.3144L139.674 33.8221C143.494 20.4697 136.117 6.41942 123.039 1.86712Z" fill="white"/>
<path d="M139.678 33.8226L139.504 34.3834L128.527 30.991L125.251 29.9785L122.527 29.1367L118.212 27.8033L116.432 27.253L112.3 25.9762L110.52 25.426L106.117 24.0653L103.297 23.1937L100.022 22.1817L89.2361 18.8484L89.4094 18.2876L89.3129 18.2578L83.5673 36.8495L83.9433 36.9658L89.1931 38.5882L93.6975 39.9802L101.671 42.4444L104.859 43.4297L112.457 45.7777L115.732 46.7897L123.617 49.2266L128.02 50.5873L133.277 52.2117L133.932 52.4143L139.678 33.8226Z" fill="#D92858"/>
</g>
<defs>
<clipPath id="clip0_162_13039">
<rect width="158" height="172" fill="white"/>
</clipPath>
</defs>
</svg>
