<svg width="30" height="30" viewBox="0 0 30 30" fill="none" xmlns="http://www.w3.org/2000/svg">
<g clip-path="url(#clip0_162_13465)">
<path d="M9.71201 7.06487L7.13125 5.29243C5.28842 4.0268 2.78578 4.46283 1.55428 6.26389C0.322788 8.06495 0.820292 10.5614 2.66312 11.8271L5.24388 13.5995L16.5312 27.0749C16.7303 27.3124 17.0454 27.4192 17.3416 27.35C17.6399 27.2821 17.8669 27.0498 17.9328 26.7541L18.762 22.8806L22.0672 20.7076C22.2379 20.5966 22.3565 20.4231 22.3995 20.2215L23.2301 16.346L26.5353 14.1729C26.6213 14.1164 26.694 14.0448 26.7506 13.9621C26.8595 13.8028 26.9052 13.6059 26.8764 13.4054C26.8319 13.1021 26.6174 12.8481 26.328 12.7471L9.71339 7.06285L9.71201 7.06487ZM3.55674 10.5201C2.44984 9.75993 2.15186 8.26299 2.89104 7.18196C3.63021 6.10092 5.13072 5.83915 6.23762 6.59936L8.24377 7.97715L5.56289 11.8979L3.55674 10.5201ZM7.79326 11.5091L20.1789 20.0154L18.1159 21.3728L7.72707 11.6059L7.79188 11.5111L7.79326 11.5091ZM8.68689 10.2021L8.7517 10.1073L21.5897 16.2923L21.0712 18.7105L8.68551 10.2042L8.68689 10.2021ZM6.78931 12.9773L6.82379 12.9269L17.1597 22.6456L16.6963 24.8053L6.78931 12.9773ZM22.4304 14.9372L9.65636 8.78429L9.68946 8.73589L24.2715 13.7267L22.429 14.9392L22.4304 14.9372Z" fill="#D62B58"/>
</g>
<defs>
<clipPath id="clip0_162_13465">
<rect width="24.845" height="24.7742" fill="white" transform="matrix(0.983105 -0.183038 0.184113 0.982905 0.200073 5.33105)"/>
</clipPath>
</defs>
</svg>
