<svg width="127" height="86" viewBox="0 0 127 86" fill="none" xmlns="http://www.w3.org/2000/svg">
<g clip-path="url(#clip0_126_7126)">
<path d="M23.5236 76.4106C22.8924 80.7772 26.0033 84.9178 30.3816 85.5481C34.76 86.1783 38.9049 83.0829 39.5362 78.7163L47.4294 24.078C48.0606 19.7114 44.9603 15.5731 40.5819 14.9429C36.2036 14.3126 32.0479 17.4068 31.4179 21.7722L23.5248 76.4106H23.5236Z" fill="#F8A91F"/>
<path d="M9.24536 38.3169C4.86702 37.6866 0.711483 40.782 0.0814125 45.1462C-0.549849 49.5128 2.56121 53.6535 6.93954 54.2849L61.7187 62.1738C66.0971 62.8041 70.242 59.7075 70.8733 55.3409C71.5033 50.9755 68.4042 46.836 64.0258 46.2058L9.24664 38.3169H9.24536Z" fill="#F8A91F"/>
<path d="M45.6303 77.1753C48.3113 80.7452 53.3078 81.4646 56.8905 78.7974C60.4625 76.1289 61.1831 71.1392 58.5128 67.5705L25.3215 23.3147C22.6512 19.7472 17.6439 19.0254 14.072 21.6951C10.4892 24.3623 9.76864 29.3521 12.4497 32.9219L45.6303 77.1753Z" fill="#F8A91F"/>
<path d="M8.50335 60.2405C4.92064 62.9078 4.20004 67.8975 6.88111 71.4673C9.55147 75.0348 14.5587 75.7566 18.1307 73.087L62.4952 40.001C66.0672 37.3313 66.7878 32.3416 64.1174 28.7729C61.4364 25.2031 56.4399 24.4836 52.8572 27.1509L8.50335 60.2393V60.2405Z" fill="#F8A91F"/>
<path d="M102.254 32.3331C101.924 34.6114 103.548 36.7718 105.832 37.1006C108.116 37.4294 110.279 35.8144 110.608 33.5361L114.727 5.02853C115.056 2.75025 113.438 0.591107 111.154 0.262271C108.87 -0.0665653 106.701 1.54783 106.373 3.82548L102.254 32.3331H102.254Z" fill="#46B27E"/>
<path d="M94.8032 12.4576C92.5188 12.1287 90.3506 13.7438 90.0219 16.0208C89.6925 18.2991 91.3157 20.4595 93.6001 20.7889L122.181 24.9049C124.466 25.2338 126.628 23.6181 126.958 21.3399C127.286 19.0622 125.669 16.9024 123.385 16.5736L94.8039 12.4576H94.8032Z" fill="#46B27E"/>
<path d="M113.787 32.7323C115.186 34.5949 117.793 34.9702 119.662 33.5786C121.526 32.1863 121.902 29.5829 120.508 27.7209L103.191 4.63045C101.798 2.76911 99.1851 2.3925 97.3215 3.7854C95.4522 5.17706 95.0762 7.78045 96.475 9.64303L113.787 32.7323Z" fill="#46B27E"/>
<path d="M94.4154 23.8965C92.5461 25.2881 92.1701 27.8915 93.569 29.7541C94.9622 31.6154 97.5748 31.992 99.4385 30.5991L122.586 13.3365C124.449 11.9436 124.825 9.3402 123.432 7.47824C122.033 5.61566 119.426 5.24029 117.557 6.63195L94.4154 23.8958V23.8965Z" fill="#46B27E"/>
</g>
<defs>
<clipPath id="clip0_126_7126">
<rect width="127" height="86" fill="white"/>
</clipPath>
</defs>
</svg>
