<svg width="210" height="158" viewBox="0 0 210 158" fill="none" xmlns="http://www.w3.org/2000/svg">
<g clip-path="url(#clip0_162_12960)">
<mask id="mask0_162_12960" style="mask-type:luminance" maskUnits="userSpaceOnUse" x="0" y="0" width="211" height="158">
<path d="M210.011 0H0V157.978H210.011V0Z" fill="white"/>
</mask>
<g mask="url(#mask0_162_12960)">
<path d="M201.687 45.174C206.239 45.174 210.009 41.3929 210.009 36.8348C210.009 32.2767 206.239 28.5085 201.687 28.5085H144.728C140.177 28.5085 136.406 32.2788 136.406 36.8348C136.406 41.3907 140.177 45.174 144.728 45.174H201.687Z" fill="#EC6198"/>
<path d="M164.885 65.3437C164.885 69.9018 168.655 73.6829 173.207 73.6829C177.758 73.6829 181.529 69.9018 181.529 65.3437V8.32839C181.531 3.77029 177.758 0 173.207 0C168.655 0 164.885 3.77029 164.885 8.32623V65.3437Z" fill="#EC6198"/>
<path d="M199.217 22.5197C202.468 19.2602 202.468 14.0593 199.217 10.7998C195.966 7.55111 190.765 7.55111 187.512 10.7998L147.199 51.1605C143.948 54.4091 143.948 59.6209 147.199 62.8696C150.45 66.1291 155.651 66.1291 158.904 62.8696L199.219 22.5197H199.217Z" fill="#EC6198"/>
<path d="M187.512 62.8698C190.763 66.1293 195.964 66.1293 199.217 62.8698C202.468 59.6211 202.468 54.4094 199.217 51.1607L158.901 10.8C155.651 7.55136 150.45 7.55136 147.197 10.8C143.946 14.0595 143.946 19.2605 147.197 22.52L187.512 62.8698Z" fill="#EC6198"/>
<path d="M144.45 133.709C148.325 133.709 151.536 130.491 151.536 126.61C151.536 122.729 148.327 119.522 144.45 119.522H95.9583C92.0841 119.522 88.8722 122.731 88.8722 126.61C88.8722 130.488 92.0819 133.709 95.9583 133.709H144.45Z" fill="#46B27E"/>
<path d="M113.12 150.881C113.12 154.762 116.33 157.98 120.206 157.98C124.083 157.98 127.292 154.762 127.292 150.881V102.341C127.292 98.4605 124.083 95.2529 120.206 95.2529C116.33 95.2529 113.12 98.4627 113.12 102.341V150.881Z" fill="#46B27E"/>
<path d="M142.346 114.424C145.114 111.65 145.114 107.222 142.346 104.447C139.578 101.681 135.15 101.681 132.381 104.447L98.0614 138.806C95.2932 141.572 95.2932 146.009 98.0614 148.775C100.83 151.549 105.258 151.549 108.026 148.775L142.346 114.424Z" fill="#46B27E"/>
<path d="M132.383 148.775C135.152 151.549 139.58 151.549 142.348 148.775C145.116 146.009 145.116 141.572 142.348 138.806L108.028 104.445C105.26 101.679 100.832 101.679 98.0635 104.445C95.2953 107.219 95.2953 111.648 98.0635 114.422L132.383 148.773V148.775Z" fill="#46B27E"/>
<path d="M65.2919 61.2575C69.8435 61.2575 73.6159 57.4763 73.6159 52.9182C73.6159 48.3601 69.8435 44.5898 65.2919 44.5898H8.32419C3.77257 44.5898 0.00012207 48.3601 0.00012207 52.9182C0.00012207 57.4763 3.77257 61.2575 8.32419 61.2575H65.2919Z" fill="#F8A91F"/>
<path d="M28.4833 81.4293C28.4833 85.9874 32.2557 89.7685 36.8073 89.7685C41.359 89.7685 45.1314 85.9874 45.1314 81.4293V24.4053C45.1314 19.8472 41.359 16.0769 36.8073 16.0769C32.2557 16.0769 28.4833 19.8472 28.4833 24.4053V81.4293Z" fill="#F8A91F"/>
<path d="M62.8191 38.6015C66.07 35.342 66.07 30.141 62.8191 26.8794C59.5683 23.6307 54.3652 23.6307 51.1122 26.8794L10.7926 67.2466C7.54178 70.4952 7.54178 75.707 10.7926 78.9578C14.0435 82.2173 19.2465 82.2173 22.4974 78.9578L62.817 38.6015H62.8191Z" fill="#F8A91F"/>
<path d="M51.1143 78.9578C54.3652 82.2173 59.5683 82.2173 62.8213 78.9578C66.0721 75.7091 66.0721 70.4974 62.8213 67.2466L22.4996 26.8794C19.2487 23.6307 14.0456 23.6307 10.7926 26.8794C7.54178 30.141 7.54178 35.342 10.7926 38.6015L51.1122 78.9578H51.1143Z" fill="#F8A91F"/>
</g>
</g>
<defs>
<clipPath id="clip0_162_12960">
<rect width="210" height="158" fill="white"/>
</clipPath>
</defs>
</svg>
