<svg width="469" height="464" viewBox="0 0 469 464" fill="none" xmlns="http://www.w3.org/2000/svg">
<g clip-path="url(#clip0_162_14006)">
<g clip-path="url(#clip1_162_14006)">
<mask id="mask0_162_14006" style="mask-type:luminance" maskUnits="userSpaceOnUse" x="0" y="0" width="469" height="464">
<path d="M469 0H0V463.701H469V0Z" fill="white"/>
</mask>
<g mask="url(#mask0_162_14006)">
<path d="M167.758 14.2294C170.237 18.9129 173.59 29.2687 174.309 48.2506C174.866 62.8787 173.91 85.5397 167.736 117.203C161.578 85.5711 160.629 62.9258 161.188 48.2977C161.914 29.2844 165.273 18.9129 167.755 14.2262M90.9708 34.7118C95.4672 37.5433 103.564 44.8542 113.698 60.9545C121.487 73.3318 131.979 93.3905 142.464 123.796C121.33 99.5117 109.183 80.401 102.348 67.4712C93.4688 50.6677 91.1751 40.0169 90.974 34.7118M244.439 34.7526C244.234 40.0545 241.944 50.6991 233.077 67.4837C226.249 80.4104 214.111 99.5148 192.983 123.792C203.465 93.3717 213.957 73.313 221.749 60.9419C231.864 44.8761 239.945 37.5778 244.439 34.7495M34.8368 90.8353C47.9269 91.2873 79.0842 103.109 124.092 142.294C93.5819 131.803 73.4723 121.303 61.0641 113.506C44.9984 103.407 37.6772 95.3367 34.8336 90.8353M300.516 90.8541C297.669 95.3556 290.348 103.42 274.292 113.509C261.906 121.291 241.834 131.775 211.402 142.247C256.335 103.134 287.426 91.3187 300.516 90.8541ZM167.865 155.111L173.75 156.633L178.407 161.285L180.028 167.325L178.325 173.675L173.844 178.152L167.497 179.853L161.615 178.327L156.962 173.679L155.296 167.476L156.129 164.374L156.987 161.176L161.298 156.869L167.862 155.111M279.63 160.768C303.287 160.768 315.727 164.707 321.022 167.447C315.715 170.194 303.247 174.149 279.502 174.149C261.598 174.149 240.769 171.87 218.079 167.476C240.825 163.056 261.695 160.764 279.63 160.768ZM55.7256 160.768C73.6546 160.768 94.5152 163.056 117.245 167.469C94.5529 171.867 73.7206 174.149 55.8136 174.149C32.0843 174.149 19.6226 170.194 14.3218 167.447C19.6163 164.707 32.056 160.768 55.7288 160.768M211.317 192.692C241.761 203.158 261.846 213.639 274.235 221.421C290.304 231.51 297.625 239.58 300.475 244.078C287.398 243.626 256.288 231.82 211.317 192.692ZM123.96 192.708C79.037 231.814 47.9394 243.633 34.8493 244.1C37.7024 239.599 45.0235 231.532 61.0735 221.446C73.4598 213.661 93.5317 203.18 123.96 192.704M142.385 211.156C131.903 241.577 121.412 261.635 113.616 274.006C103.505 290.063 95.4264 297.364 90.9331 300.189C91.1374 294.888 93.4311 284.24 102.298 267.458C109.129 254.532 121.267 235.427 142.385 211.153M192.914 211.153C214.035 235.421 226.173 254.513 233.008 267.436C241.878 284.215 244.175 294.859 244.382 300.161C239.882 297.33 231.795 290.019 221.668 273.937C213.878 261.569 203.396 241.53 192.917 211.153M167.639 217.745C173.794 249.374 174.746 272.022 174.187 286.647C173.461 305.661 170.102 316.032 167.62 320.719C165.141 316.035 161.788 305.68 161.069 286.698C160.512 272.07 161.468 249.409 167.642 217.748M167.761 -0.00317383C152.261 -0.00317383 136.752 51.9893 164.619 155.974C139.055 60.7033 103.819 21.3959 87.7627 21.3927C68.7591 21.3927 76.6239 76.4615 159.208 158.966C99.9636 99.7785 54.8458 79.0073 34.0764 79.0041C1.42968 79.001 28.9107 130.29 156.139 164.371C114.245 153.149 80.7684 148.952 55.7382 148.949C-18.6139 148.946 -18.5731 185.968 55.823 185.968C80.8501 185.968 114.282 181.78 156.139 170.587C28.9516 204.655 1.45796 255.935 34.0575 255.935C54.8018 255.935 99.885 235.176 159.098 176.017C76.5862 258.493 68.7309 313.524 87.7219 313.524C103.766 313.524 138.961 274.283 164.484 179.169C164.503 179.103 164.519 179.04 164.534 178.977C164.519 179.043 164.5 179.106 164.484 179.169C136.645 283.025 152.126 334.955 167.617 334.955C183.107 334.955 198.626 282.962 170.756 178.977C196.314 274.204 231.546 313.493 247.596 313.493C266.594 313.493 258.726 258.465 176.192 176.017C235.411 235.148 280.498 255.913 301.254 255.913C333.895 255.913 306.379 204.617 179.155 170.587C221.011 181.777 254.475 185.968 279.508 185.968C353.951 185.968 353.967 148.949 279.637 148.949C254.603 148.949 221.14 153.146 179.236 164.371C306.423 130.303 333.914 79.0292 301.314 79.023C280.57 79.0198 235.487 99.7816 176.27 158.941C258.789 76.4646 266.641 21.4461 247.656 21.4335C231.612 21.421 196.417 60.6719 170.891 155.786C170.875 155.849 170.856 155.911 170.841 155.974C170.856 155.908 170.875 155.845 170.891 155.786C198.73 51.9296 183.249 -3.47565e-05 167.758 -3.47565e-05" fill="white"/>
<path d="M350.593 165.093C269.196 147.141 188.588 198.606 170.58 280.096C152.573 361.587 203.959 442.167 285.393 460.128C366.79 478.081 447.395 426.616 465.406 345.122C483.413 263.632 431.992 183.046 350.593 165.093Z" fill="#46B27E"/>
<path d="M270.208 331.768L276.146 304.898C276.388 303.802 276.571 302.657 276.599 301.517C276.769 296.222 273.9 292.627 268.785 291.5L253.859 288.208C252.235 287.85 250.689 287.988 249.171 288.653C245.552 290.301 243.635 293.283 242.799 297.06C238.743 315.235 234.718 333.454 230.737 351.648C230.441 352.989 230.337 354.448 230.444 355.804C230.724 360.237 233.373 363.486 237.219 364.333L252.92 367.796C255.283 368.317 257.454 367.871 259.424 366.49C262.133 364.606 263.55 361.882 264.219 358.695C266.202 349.727 268.225 340.734 270.208 331.762M347.215 282.686C349.311 280.074 350.844 277.155 352.032 274.119C354.304 268.365 356.44 262.539 358.508 256.701C360.852 250.109 362.571 243.341 363.369 236.369C363.692 233.735 363.762 231.086 363.108 228.499C362.388 225.564 360.717 223.417 357.823 222.444C356.381 221.942 354.847 221.678 353.333 221.493C351.133 221.229 349.289 222.045 347.935 223.819C347.47 224.418 347.005 225.021 346.706 225.696C345.55 228.254 344.39 230.813 343.375 233.402C341.49 238.246 339.784 243.127 337.933 247.977C335.687 253.963 332.78 259.579 328.975 264.74C322.449 273.52 314.763 281.157 306.352 288.076C299.741 293.544 292.913 298.664 285.086 302.271C284.844 302.365 284.652 302.729 284.596 302.977C284.335 304.324 284.215 305.708 283.926 307.014L273.378 354.75C273.205 355.528 273.3 356.103 273.79 356.73C274.707 357.936 275.496 359.217 276.379 360.412C278.739 363.633 281.039 366.957 283.578 370.034C286.406 373.471 289.988 375.854 294.468 376.842C304.727 379.143 314.92 381.576 325.157 383.981L325.22 383.698C332.347 385.271 339.467 386.878 346.637 388.422C350.772 389.298 354.945 390.18 359.133 390.808C362.319 391.292 365.047 390.005 367.102 387.569C370.797 383.237 369.75 376.748 365.003 373.628C364.198 373.079 363.406 372.313 362.963 371.475C362.203 370.046 362.498 368.558 363.523 367.265C364.641 365.881 366.121 365.542 367.831 365.846C374.272 367.008 379.856 361.502 378.724 355.067C378.209 352.21 376.691 350.025 374.171 348.547C372.076 347.307 371.384 345.081 372.409 343.122C373.273 341.387 375.145 340.618 377.342 341.063C381.844 341.945 386.215 339.431 387.906 334.951C389.426 330.918 387.591 325.996 383.849 323.839C381.81 322.687 381.028 320.7 381.819 318.616C382.523 316.77 384.512 315.803 386.746 316.258C391.604 317.219 396.502 313.967 397.552 309.051C398.601 304.135 395.484 299.154 390.658 298.052C385.587 296.897 380.471 295.766 375.387 294.646L347.206 282.692L347.215 282.686Z" fill="#46B27E"/>
<path d="M350.593 165.093C269.196 147.141 188.588 198.606 170.58 280.096C152.573 361.587 203.959 442.167 285.393 460.128C366.79 478.081 447.395 426.616 465.406 345.122C483.413 263.632 431.992 183.046 350.593 165.093Z" fill="#46B27E"/>
<path d="M270.208 331.768L276.146 304.898C276.388 303.802 276.571 302.657 276.599 301.517C276.769 296.222 273.9 292.627 268.785 291.5L253.859 288.208C252.235 287.85 250.689 287.988 249.171 288.653C245.552 290.301 243.635 293.283 242.799 297.06C238.743 315.235 234.718 333.454 230.737 351.648C230.441 352.989 230.337 354.448 230.444 355.804C230.724 360.237 233.373 363.486 237.219 364.333L252.92 367.796C255.283 368.317 257.454 367.871 259.424 366.49C262.133 364.606 263.55 361.882 264.219 358.695C266.202 349.727 268.225 340.734 270.208 331.762M347.215 282.686C349.311 280.074 350.844 277.155 352.032 274.119C354.304 268.365 356.44 262.539 358.508 256.701C360.852 250.109 362.571 243.341 363.369 236.369C363.692 233.735 363.762 231.086 363.108 228.499C362.388 225.564 360.717 223.417 357.823 222.444C356.381 221.942 354.847 221.678 353.333 221.493C351.133 221.229 349.289 222.045 347.935 223.819C347.47 224.418 347.005 225.021 346.706 225.696C345.55 228.254 344.39 230.813 343.375 233.402C341.49 238.246 339.784 243.127 337.933 247.977C335.687 253.963 332.78 259.579 328.975 264.74C322.449 273.52 314.763 281.157 306.352 288.076C299.741 293.544 292.913 298.664 285.086 302.271C284.844 302.365 284.652 302.729 284.596 302.977C284.335 304.324 284.215 305.708 283.926 307.014L273.378 354.75C273.205 355.528 273.3 356.103 273.79 356.73C274.707 357.936 275.496 359.217 276.379 360.412C278.739 363.633 281.039 366.957 283.578 370.034C286.406 373.471 289.988 375.854 294.468 376.842C304.727 379.143 314.92 381.576 325.157 383.981L325.22 383.698C332.347 385.271 339.467 386.878 346.637 388.422C350.772 389.298 354.945 390.18 359.133 390.808C362.319 391.292 365.047 390.005 367.102 387.569C370.797 383.237 369.75 376.748 365.003 373.628C364.198 373.079 363.406 372.313 362.963 371.475C362.203 370.046 362.498 368.558 363.523 367.265C364.641 365.881 366.121 365.542 367.831 365.846C374.272 367.008 379.856 361.502 378.724 355.067C378.209 352.21 376.691 350.025 374.171 348.547C372.076 347.307 371.384 345.081 372.409 343.122C373.273 341.387 375.145 340.618 377.342 341.063C381.844 341.945 386.215 339.431 387.906 334.951C389.426 330.918 387.591 325.996 383.849 323.839C381.81 322.687 381.028 320.7 381.819 318.616C382.523 316.77 384.512 315.803 386.746 316.258C391.604 317.219 396.502 313.967 397.552 309.051C398.601 304.135 395.484 299.154 390.658 298.052C385.587 296.897 380.471 295.766 375.387 294.646L347.206 282.692L347.215 282.686Z" fill="white"/>
</g>
</g>
</g>
<defs>
<clipPath id="clip0_162_14006">
<rect width="469" height="464" fill="white"/>
</clipPath>
<clipPath id="clip1_162_14006">
<rect width="469" height="463.701" fill="white"/>
</clipPath>
</defs>
</svg>
