<svg width="25" height="29" viewBox="0 0 25 29" fill="none" xmlns="http://www.w3.org/2000/svg">
<path d="M12.8033 14.3492L24.5275 9.72091C24.9393 8.09398 24.0058 6.439 22.4133 5.99019L12.6386 14.0687L14.588 1.36186C13.4348 0.183741 11.5403 0.183741 10.3871 1.36186L12.3365 14.0687L2.56184 5.99019C0.969336 6.41095 0.035784 8.09398 0.44764 9.72091L12.1718 14.3492L0.44764 18.9776C0.035784 20.6045 0.969336 22.2595 2.56184 22.7083L12.3365 14.6297L10.3871 27.3366C11.5403 28.5147 13.4348 28.5147 14.588 27.3366L12.6386 14.6297L22.4133 22.7083C24.0058 22.2875 24.9393 20.6045 24.5275 18.9776L12.8033 14.3492Z" fill="white"/>
</svg>
