<svg width="60" height="60" viewBox="0 0 60 60" fill="none" xmlns="http://www.w3.org/2000/svg">
<rect width="60" height="60" rx="30" fill="#44B27F"/>
<path d="M39.4659 35.192C39.0621 34.83 38.4495 34.8718 38.1015 35.2616C36.0826 37.5172 33.1726 38.812 30.1095 38.812C27.0464 38.812 24.1364 37.5172 22.1176 35.2616C21.7555 34.8578 21.1568 34.83 20.7531 35.192C20.3493 35.554 20.3215 36.1666 20.6835 36.5565C23.0643 39.2158 26.5034 40.7474 30.1095 40.7474C33.7156 40.7474 37.1547 39.2158 39.5355 36.5565C39.8976 36.1527 39.8558 35.5401 39.4659 35.192Z" fill="white"/>
<path d="M30.1092 7.84668C17.8428 7.84668 7.84595 17.8296 7.84595 30.1099C7.84595 42.3902 17.8289 52.3732 30.1092 52.3732C42.3895 52.3732 52.3725 42.3902 52.3725 30.1099C52.3725 17.8296 42.3895 7.84668 30.1092 7.84668ZM30.1092 50.424C18.901 50.424 9.7813 41.3042 9.7813 30.096C9.7813 18.8878 18.901 9.76809 30.1092 9.76809C41.3174 9.76809 50.4371 18.8878 50.4371 30.096C50.4371 41.3042 41.3174 50.424 30.1092 50.424Z" fill="white"/>
<path d="M37.8648 23.3296C35.1916 23.3296 33.0195 25.5016 33.0195 28.1749C33.0195 28.7039 33.4512 29.1356 33.9942 29.1356C34.5372 29.1356 34.9549 28.7039 34.9549 28.1749C34.9549 26.5737 36.2637 25.2649 37.8648 25.2649C39.466 25.2649 40.7748 26.5737 40.7748 28.1749C40.7748 28.7039 41.2064 29.1356 41.7355 29.1356C42.2646 29.1356 42.7101 28.7039 42.7101 28.1749C42.7101 25.5016 40.5381 23.3296 37.8648 23.3296Z" fill="white"/>
<path d="M25.2777 28.1749C25.2777 28.7039 25.7093 29.1495 26.2523 29.1495C26.7953 29.1495 27.213 28.7179 27.213 28.1749C27.213 25.5016 25.041 23.3296 22.3677 23.3296C19.6945 23.3296 17.5364 25.5016 17.5364 28.1749C17.5364 28.7039 17.968 29.1495 18.4971 29.1495C19.0262 29.1495 19.4717 28.7179 19.4717 28.1749C19.4717 26.5737 20.7805 25.2649 22.3677 25.2649C23.955 25.2649 25.2777 26.5737 25.2777 28.1749Z" fill="white"/>
</svg>
