<svg width="85" height="85" viewBox="0 0 85 85" fill="none" xmlns="http://www.w3.org/2000/svg">
<circle cx="42.364" cy="42.3386" r="42.3386" fill="#EC6198"/>
<g clip-path="url(#clip0_162_13678)">
<rect width="53.1694" height="52.1848" transform="translate(15.7793 18.7079)" fill="#EC6198"/>
<path d="M35.1049 25.9657L30.3749 21.3003C26.9973 17.969 21.5615 17.9071 18.2615 21.1618C14.9616 24.4166 15.0244 29.7781 18.402 33.1095L23.132 37.7748L41.5644 70.0312C41.8896 70.5997 42.5104 70.9424 43.1608 70.9132C43.8149 70.8877 44.384 70.4941 44.639 69.9073L47.9094 62.2058L55.7177 58.9802C56.1205 58.8162 56.4382 58.5027 56.6082 58.1018L59.8823 50.3967L67.6906 47.1711C67.8938 47.0872 68.0749 46.9669 68.2264 46.8175C68.5184 46.5296 68.692 46.1396 68.7105 45.7131C68.7364 45.068 68.3853 44.4593 67.8162 44.1386L35.1086 25.962L35.1049 25.9657ZM20.7965 30.7476C18.7678 28.7466 18.7308 25.5319 20.7115 23.5783C22.6922 21.6247 25.9516 21.6612 27.9803 23.6622L31.6572 27.2887L24.4734 34.3742L20.7965 30.7476ZM29.318 34.4289L52.0186 56.8188L47.1444 58.8344L29.1407 34.6038L29.3143 34.4325L29.318 34.4289ZM31.7126 32.067L31.8863 31.8957L56.453 49.6532L54.4095 54.4606L31.7089 32.0707L31.7126 32.067ZM26.6278 37.0823L26.7202 36.9912L44.6316 61.1015L42.8061 65.395L26.6278 37.0823ZM58.7552 47.1711L34.3104 29.5048L34.3991 29.4173L63.1047 45.3742L58.7515 47.1747L58.7552 47.1711Z" fill="white"/>
</g>
<defs>
<clipPath id="clip0_162_13678">
<rect width="53.1694" height="52.1848" fill="white" transform="translate(15.7793 18.7079)"/>
</clipPath>
</defs>
</svg>
