<svg width="332" height="316" viewBox="0 0 332 316" fill="none" xmlns="http://www.w3.org/2000/svg">
<g clip-path="url(#clip0_179_15557)">
<path d="M193.602 113.222L236.071 106.109C262.947 101.608 288.661 119.823 293.159 146.379C294.24 152.759 294.022 158.825 292.712 164.719C292.741 164.892 292.564 164.921 292.593 165.093L142.812 190.179C129.464 192.414 115.725 189.218 104.785 181.475C93.6546 173.587 80.1232 170.532 66.7732 172.768L18.5744 180.841L-0.646736 67.3757L84.6467 53.0906C78.8242 32.4318 89.979 10.8801 109.908 3.28575L114.59 2.50165L140.908 93.6763L193.603 113.224L193.602 113.222Z" fill="#EC6198"/>
<path d="M151.765 96.812L138.877 131.232L129.396 127.857L142.282 93.4371L151.765 96.812Z" fill="white"/>
<path d="M173.715 105.352L160.829 139.772L150.564 135.998L163.452 101.576L173.715 105.352Z" fill="white"/>
<path d="M194.311 113.232L181.423 147.652L171.16 143.875L184.017 109.283L194.311 113.232Z" fill="white"/>
<path d="M66.4756 172.503C79.8286 170.266 93.5691 173.464 104.511 181.212C115.644 189.107 129.178 192.161 142.531 189.924L292.523 164.793C292.523 164.793 291.159 175.668 286.744 184.394C308.83 186.372 327.892 203.052 331.778 226L331.866 226.517L80.3968 268.651C55.1366 272.883 31.1926 255.843 26.9164 230.59C27.404 230.332 27.8779 229.897 28.1884 229.668L26.9767 229.871C26.9767 229.871 26.9477 229.7 26.683 229.212L18.4437 180.554L66.4762 172.506L66.4756 172.503Z" fill="#46B27E"/>
<path d="M285.647 274.738C265.716 278.076 247.054 264.714 243.725 245.061C240.395 225.407 253.801 206.673 273.556 203.365C293.31 200.056 312.149 213.389 315.479 233.044C318.809 252.699 305.402 271.43 285.647 274.738Z" fill="white"/>
<path d="M282.931 258.708C272.02 260.536 261.51 253.252 259.641 242.22C257.772 231.187 265.126 220.914 276.214 219.057C287.301 217.2 297.635 224.511 299.504 235.544C301.196 246.606 293.856 256.879 282.931 258.708Z" fill="#EC6198"/>
<path d="M213.671 286.829C193.739 290.167 175.077 276.805 171.748 257.152C168.418 237.498 181.825 218.764 201.579 215.456C221.334 212.147 240.172 225.48 243.502 245.135C246.832 264.79 233.44 283.519 213.671 286.829Z" fill="white"/>
<path d="M210.954 270.798C200.043 272.625 189.533 265.342 187.664 254.309C185.795 243.277 193.149 233.003 204.237 231.146C215.325 229.289 225.658 236.601 227.527 247.633C229.233 258.693 221.879 268.968 210.954 270.798Z" fill="#EC6198"/>
<path d="M141.532 298.948C121.6 302.286 102.938 288.924 99.6088 269.271C96.2793 249.617 109.671 230.885 129.44 227.575C149.209 224.264 168.033 237.599 171.363 257.254C174.855 276.88 161.463 295.61 141.532 298.948Z" fill="white"/>
<path d="M70.1018 310.897C50.1703 314.235 31.5087 300.873 28.1791 281.22C24.8496 261.566 38.2414 242.835 58.0104 239.524C77.7794 236.213 96.6035 249.548 99.9333 269.203C103.425 288.829 90.0334 307.559 70.1018 310.897Z" fill="white"/>
<path d="M138.36 280.227C127.434 282.057 117.039 275.368 115.297 265.084C113.555 254.8 120.996 245.125 132.098 243.266C143.201 241.406 153.419 248.124 155.161 258.408C156.904 268.692 149.271 278.4 138.36 280.227Z" fill="#EC6198"/>
<path d="M66.9305 292.176C56.0049 294.006 45.6095 287.317 43.8673 277.033C42.125 266.749 49.5663 257.074 60.6688 255.215C71.7714 253.355 81.9896 260.072 83.7318 270.356C85.474 280.641 77.8418 290.349 66.9305 292.176Z" fill="#EC6198"/>
</g>
<defs>
<clipPath id="clip0_179_15557">
<rect width="332" height="316" fill="white"/>
</clipPath>
</defs>
</svg>
