<svg width="336" height="297" viewBox="0 0 336 297" fill="none" xmlns="http://www.w3.org/2000/svg">
<g clip-path="url(#clip0_162_13048)">
<path d="M256.581 204.117C308.25 152.599 313.879 74.6858 269.154 30.0933C224.431 -14.4991 146.287 -8.88639 94.6174 42.6299C42.9515 94.1479 37.3223 172.061 82.0475 216.655C126.771 261.248 204.913 255.635 256.583 204.117" fill="#D92858"/>
<path d="M53.7411 119.559C47.5243 155.391 56.7259 191.343 81.9712 216.637C107.337 241.932 143.399 251.106 179.335 244.781L53.7411 119.559Z" fill="#46B27E"/>
<path d="M8.96491 288.15C21.6476 300.795 42.4157 299.929 53.9805 286.167L130.207 195.657L101.73 167.263L10.9554 243.266C-2.84699 254.797 -3.71597 275.502 8.96491 288.15Z" fill="white"/>
<path d="M296.769 198.417C318.539 198.417 336.188 180.819 336.188 159.114C336.188 137.408 318.539 119.811 296.769 119.811C274.999 119.811 257.351 137.408 257.351 159.114C257.351 180.819 274.999 198.417 296.769 198.417Z" fill="white"/>
</g>
<defs>
<clipPath id="clip0_162_13048">
<rect width="336" height="297" fill="white"/>
</clipPath>
</defs>
</svg>
