<svg width="352" height="311" viewBox="0 0 352 311" fill="none" xmlns="http://www.w3.org/2000/svg">
<path d="M268.672 213.736C322.777 159.79 328.671 78.2052 281.838 31.5115C235.007 -15.1823 153.181 -9.30515 99.0766 44.6388C44.976 98.5845 39.0815 180.169 85.9144 226.865C132.745 273.559 214.57 267.681 268.674 213.736" fill="#D92858"/>
<path d="M56.2736 125.193C49.7638 162.714 59.399 200.36 85.8339 226.846C112.395 253.333 150.157 262.94 187.786 256.316L56.2736 125.193Z" fill="#46B27E"/>
<path d="M9.38737 301.728C22.6677 314.97 44.4145 314.062 56.5242 299.652L136.343 204.876L106.524 175.145L11.4717 254.73C-2.98115 266.804 -3.89108 288.485 9.38737 301.728Z" fill="white"/>
<path d="M310.754 207.767C333.549 207.767 352.03 189.34 352.03 166.612C352.03 143.883 333.549 125.457 310.754 125.457C287.958 125.457 269.478 143.883 269.478 166.612C269.478 189.34 287.958 207.767 310.754 207.767Z" fill="white"/>
</svg>
