<svg width="313" height="323" viewBox="0 0 313 323" fill="none" xmlns="http://www.w3.org/2000/svg">
<g clip-path="url(#clip0_162_13054)">
<path d="M200.747 66.6732C138.521 66.6732 88.0002 117.001 88.0002 178.969C88.0002 240.938 138.521 291.265 200.747 291.265C249.564 291.265 291.043 260.28 306.684 217.089V140.848C291.043 97.6547 249.372 66.6714 200.747 66.6714V66.6732Z" fill="#46B27E"/>
<circle cx="200.864" cy="178.812" r="112.138" fill="#46B27E"/>
<path d="M198.482 152.117C240.747 152.117 275.016 117.982 275.016 75.8766C275.016 33.771 240.747 -0.365723 198.482 -0.365723C156.216 -0.365723 121.93 33.7692 121.93 75.8766C121.93 117.984 156.2 152.117 198.482 152.117Z" fill="#46B27E"/>
<path d="M201.768 58.5981H194.43V323H201.768V58.5981Z" fill="#EC6198"/>
<path d="M255.928 165.788C254.702 167.005 240.804 180.852 227.205 194.397C220.408 201.169 213.686 207.865 208.664 212.867C206.153 215.369 204.067 217.447 202.609 218.899C201.88 219.626 201.307 220.195 200.917 220.585C200.722 220.778 200.573 220.927 200.472 221.028C200.422 221.078 200.384 221.116 200.359 221.141C200.346 221.154 200.337 221.163 200.33 221.17C200.326 221.173 200.324 221.175 200.323 221.177C200.323 221.177 200.323 221.177 200.321 221.179C200.321 221.179 199.456 220.316 197.727 218.591C195.998 216.865 195.134 216.003 195.135 216.003C195.135 216.003 195.135 216.003 195.137 216.001C195.137 216.001 195.14 215.997 195.144 215.994C195.151 215.986 195.16 215.977 195.173 215.965C195.198 215.94 195.236 215.902 195.286 215.852C195.387 215.751 195.536 215.602 195.731 215.408C196.121 215.021 196.692 214.45 197.423 213.723C198.881 212.271 200.967 210.193 203.478 207.691C208.5 202.689 215.22 195.993 222.019 189.221C235.613 175.679 249.518 161.827 250.749 160.603L255.928 165.786V165.788Z" fill="#EC6198"/>
<path d="M150.755 117.253L145.568 122.43L195.156 171.82L200.342 166.643L150.755 117.253Z" fill="#EC6198"/>
<path d="M66.7408 133.44C29.9058 133.44 0 163.231 0 199.914C0 236.596 29.9058 266.388 66.7408 266.388C95.6386 266.388 120.192 248.046 129.451 222.479V177.348C120.192 151.779 95.5246 133.438 66.7408 133.438V133.44Z" fill="#46B27E"/>
<path d="M65.3997 184.018C90.4188 184.018 110.705 163.812 110.705 138.887C110.705 113.963 90.4188 93.7554 65.3997 93.7554C40.3805 93.7554 20.085 113.962 20.085 138.887C20.085 163.813 40.3709 184.018 65.3997 184.018Z" fill="#46B27E"/>
<path d="M67.3452 128.659H63.001V285.173H67.3452V128.659Z" fill="#EC6198"/>
<path d="M99.4058 192.11C98.6802 192.831 90.4531 201.027 82.4028 209.045C78.3793 213.054 74.4005 217.018 71.4276 219.979C69.9412 221.46 68.7062 222.69 67.8431 223.55C67.4116 223.98 67.0727 224.317 66.8415 224.547C66.7264 224.662 66.638 224.75 66.5783 224.81C66.5485 224.84 66.5261 224.862 66.5112 224.877C66.5037 224.884 66.4984 224.889 66.4941 224.894C66.492 224.896 66.491 224.897 66.4899 224.898C66.4899 224.898 66.4899 224.898 66.4888 224.899C66.4888 224.899 65.977 224.388 64.9533 223.367C63.9297 222.346 63.4182 221.835 63.4189 221.835C63.4189 221.835 63.419 221.835 63.42 221.834C63.42 221.834 63.4222 221.832 63.4243 221.83C63.4286 221.825 63.4339 221.82 63.4413 221.813C63.4562 221.798 63.4787 221.776 63.5085 221.746C63.5682 221.686 63.6566 221.598 63.7716 221.483C64.0029 221.254 64.3406 220.916 64.7733 220.486C65.6364 219.626 66.8713 218.396 68.3578 216.915C71.3307 213.954 75.3084 209.99 79.333 205.981C87.38 197.965 95.6114 189.766 96.3402 189.041L99.4058 192.109V192.11Z" fill="#EC6198"/>
<path d="M37.1474 163.38L34.0771 166.444L63.4307 195.681L66.5009 192.617L37.1474 163.38Z" fill="#EC6198"/>
</g>
<defs>
<clipPath id="clip0_162_13054">
<rect width="313" height="323" fill="white"/>
</clipPath>
</defs>
</svg>
