<svg width="290" height="314" viewBox="0 0 290 314" fill="none" xmlns="http://www.w3.org/2000/svg">
<g clip-path="url(#clip0_162_13963)">
<path d="M121.774 250.939C115.185 266.665 119.766 284.7 132.953 295.668C150.01 294.182 164.075 281.693 167.555 265.011L206.405 83.5721L192.796 79.3889L121.774 250.939Z" fill="white"/>
<path d="M61.8941 216.652C51.3258 230.034 51.0139 248.622 61.0333 262.538C78.0172 265.519 94.7399 257.205 102.476 242.02L186.999 77.4211L172.364 72.9225L61.8941 216.652Z" fill="white"/>
<path d="M-0.394703 210.771C15.1437 217.79 33.6284 214.131 44.9557 201.355L163.932 70.3268L154.3 67.3659L-0.394703 210.771Z" fill="white"/>
<path d="M188.725 268.528C186.539 285.232 195.763 301.708 211.303 308.724C227.295 302.803 237.579 287.28 236.621 270.356L226.939 89.694L212.466 85.2451L188.722 268.527L188.725 268.528Z" fill="white"/>
<path d="M234.97 92.3513L258.876 267.299C261.036 284.029 274.168 297.598 290.994 300.527L244.795 95.3714L234.97 92.3513Z" fill="white"/>
<path d="M225.831 4.40887L222.224 3.30018C197.623 -3.14028 172.314 10.3789 164.261 34.4347L256.363 62.7453C263.375 38.3693 249.835 12.7195 225.831 4.40887Z" fill="white"/>
<path d="M256.371 61.7464L256.052 62.7701L235.904 56.577L229.891 54.7286L224.891 53.1918L216.972 50.7575L213.704 49.753L206.121 47.4221L202.853 46.4176L194.772 43.9336L189.595 42.3424L183.585 40.4949L163.788 34.4097L164.106 33.386L163.929 33.3315L153.383 67.2722L154.073 67.4844L163.709 70.4462L171.976 72.9875L186.612 77.4861L192.463 79.2848L206.408 83.5712L212.419 85.4187L226.892 89.8676L234.974 92.3516L244.621 95.3172L245.825 95.6871L256.371 61.7464Z" fill="#D92858"/>
</g>
<defs>
<clipPath id="clip0_162_13963">
<rect width="290" height="314" fill="white"/>
</clipPath>
</defs>
</svg>
