<svg width="125" height="39" viewBox="0 0 125 39" fill="none" xmlns="http://www.w3.org/2000/svg">
<g clip-path="url(#clip0_210_1288)">
<rect x="78.4561" y="-1.03955" width="37.1287" height="37.1287" rx="18.5644" transform="rotate(80.7439 78.4561 -1.03955)" fill="#F8A919"/>
<path d="M70.4838 15.6754L72.3634 13.0686C73.7056 11.2071 73.3112 8.62367 71.4847 7.3115C69.6582 5.99934 67.0787 6.4463 65.7365 8.30773L63.8568 10.9145L49.7469 22.1682C49.4982 22.3667 49.3815 22.6878 49.4463 22.9941C49.5097 23.3024 49.7438 23.5417 50.0466 23.617L54.0142 24.5692L56.1786 28.0222C56.2891 28.2006 56.465 28.3269 56.6715 28.3764L60.6411 29.33L62.8055 32.7831C62.8617 32.873 62.9339 32.9495 63.0177 33.0098C63.1793 33.1258 63.3809 33.1779 63.5879 33.1535C63.9008 33.1155 64.1668 32.9016 64.277 32.6067L70.4858 15.6768L70.4838 15.6754ZM67.0619 9.25989C67.8681 8.14181 69.4148 7.87415 70.5111 8.66175C71.6074 9.44934 71.8442 10.9983 71.038 12.1164L69.5769 14.1428L65.6007 11.2863L67.0619 9.25989ZM65.9525 13.5887L56.9317 26.0993L55.5797 23.944L65.8543 13.5182L65.9505 13.5872L65.9525 13.5887ZM67.2779 14.5409L67.374 14.6099L60.7319 27.6454L58.255 27.05L67.2759 14.5394L67.2779 14.5409ZM64.4635 12.519L64.5146 12.5557L54.2907 22.9283L52.0786 22.3964L64.4635 12.519ZM62.108 28.5444L68.7158 15.5738L68.7649 15.6091L63.3137 30.4678L62.106 28.5429L62.108 28.5444Z" fill="white"/>
<rect x="6.09668" y="-2.27722" width="37.1287" height="37.1287" rx="18.5644" transform="rotate(14.3312 6.09668 -2.27722)" fill="#EC6198"/>
<path d="M26.3133 29.1196C26.2084 28.9011 26.056 28.583 25.8672 28.1876C29.8808 25.45 30.5963 19.2915 30.6247 19.0214C30.6408 18.8649 30.5527 18.7138 30.4064 18.6551C30.1717 18.5595 25.1688 16.541 20.9785 18.0156C20.7875 17.6197 20.5992 17.2317 20.4144 16.8496C21.4996 16.4587 22.3783 15.5611 22.6867 14.3716C23.1815 12.4627 22.0218 10.5168 20.1012 10.0332C19.088 9.7781 18.0658 9.98286 17.2512 10.5099C16.2101 8.79567 13.5159 7.93493 11.9904 8.83508C10.4562 9.74036 9.92449 12.5277 10.9569 14.2568C11.3952 14.9922 14.1449 18.8295 16.4334 22.001C14.8252 24.7775 14.4633 27.8825 14.4435 28.0721C14.4274 28.2285 14.5155 28.3796 14.6618 28.4384C14.7525 28.4758 15.5454 28.797 16.7285 29.0949C18.0978 29.4397 19.9874 29.75 21.9055 29.5544C22.4 30.2334 22.7823 30.7602 23.0085 31.0677C22.5676 31.4091 22.436 32.0302 22.7282 32.5173C22.8851 32.7806 23.1359 32.9556 23.4139 33.0256C23.6918 33.0956 23.9971 33.0605 24.2629 32.9037L27.3284 31.0949C27.5856 30.9431 27.7686 30.6998 27.8432 30.4121C27.9177 30.1244 27.8756 29.8243 27.7238 29.5696C27.4316 29.0826 26.8213 28.8973 26.311 29.119L26.3133 29.1196ZM21.9912 14.194C21.7811 15.0046 21.2362 15.6433 20.5442 16.009C20.38 15.4058 20.3959 14.6266 20.599 13.8435C20.802 13.0603 21.1695 12.3696 21.6049 11.9174C22.034 12.5654 22.2013 13.3834 21.9912 14.194ZM21.1393 11.3721C20.5945 11.916 20.1432 12.7412 19.9029 13.6682C19.6625 14.5952 19.6569 15.5327 19.8703 16.2674C19.4287 16.3752 18.9574 16.3806 18.4888 16.2626C18.0201 16.1446 17.6092 15.9171 17.2742 15.6138C17.819 15.0699 18.2703 14.2447 18.5106 13.3177C18.7509 12.3907 18.7566 11.4532 18.5432 10.7184C18.9847 10.6107 19.456 10.6053 19.9247 10.7233C20.3934 10.8413 20.8043 11.0688 21.1393 11.3721ZM17.8676 10.974C18.0318 11.5772 18.0158 12.3564 17.8128 13.1395C17.6098 13.9227 17.2423 14.6134 16.8069 15.0656C16.3777 14.4176 16.2104 13.5996 16.4206 12.789C16.6307 11.9784 17.1756 11.3397 17.8676 10.974ZM11.5758 13.8896C10.7555 12.5131 11.1708 10.1465 12.3554 9.44749C13.54 8.74851 15.8262 9.52114 16.6466 10.8976C16.6585 10.9177 16.6698 10.94 16.6835 10.9629C16.2338 11.4042 15.8903 11.9647 15.7216 12.6155C15.2267 14.5243 16.3865 16.4702 18.3071 16.9538C18.7758 17.0718 19.2481 17.091 19.7008 17.025C19.9004 17.4352 20.1045 17.8563 20.312 18.2831C20.0759 18.3915 19.842 18.5102 19.6137 18.6449C18.4551 19.3285 17.5517 20.2929 16.8461 21.3436C13.7726 17.0842 11.9027 14.4414 11.5775 13.8925L11.5758 13.8896ZM15.197 27.875C15.389 26.6245 16.3937 21.3707 19.9787 19.2573C23.5643 17.1416 28.6769 18.7839 29.8718 19.2161C29.6798 20.4666 28.6751 25.7204 25.0901 27.8339C21.5045 29.9496 16.3919 28.3072 15.197 27.875ZM26.9657 30.483L23.9002 32.2919C23.7095 32.4044 23.4614 32.3419 23.3488 32.153C23.2362 31.9642 23.3002 31.7176 23.4909 31.6051L23.7105 31.4755C23.7971 31.4243 23.8587 31.3377 23.879 31.2406C23.8999 31.1413 23.877 31.0407 23.8178 30.9577C23.8178 30.9577 23.3967 30.3822 22.7136 29.4392C23.5842 29.2814 24.443 28.999 25.25 28.5576C25.6151 29.3208 25.831 29.7717 25.831 29.7717C25.8735 29.8626 25.9542 29.9292 26.0518 29.9586C26.15 29.9858 26.253 29.9752 26.3397 29.9241L26.5593 29.7945C26.7465 29.686 27.0015 29.7502 27.1107 29.9333C27.1806 30.0507 27.1735 30.1632 27.1545 30.2362C27.1356 30.3093 27.0871 30.4114 26.9686 30.4813L26.9657 30.483Z" fill="white"/>
<path d="M25.8741 21.9309L25.5092 21.3185L24.9429 21.6527L24.3493 20.6568L23.7304 21.0239L24.3245 22.0175L23.6288 22.4261L23.037 21.4331L22.4164 21.7973L23.0099 22.7932L22.3165 23.2024L21.7224 22.2088L21.1041 22.5736L21.6959 23.5666L21.0018 23.9781L20.4083 22.9822L19.7894 23.3493L20.3835 24.3429L19.6878 24.7515L19.096 23.7585L18.4754 24.1227L19.0689 25.1186L18.5026 25.4528L18.8676 26.0652L19.4339 25.731L20.0274 26.7269L20.6463 26.3598L20.0522 25.3662L20.7485 24.9553L21.3397 25.9506L21.9603 25.5864L21.3668 24.5905L22.0626 24.1819L22.6544 25.1749L23.2727 24.8101L22.6815 23.8148L23.3749 23.4056L23.9684 24.4015L24.5873 24.0344L23.9932 23.0408L24.6895 22.6299L25.2808 23.6252L25.9014 23.261L25.3078 22.2651L25.8741 21.9309Z" fill="white"/>
<rect x="84.1592" y="6.1416" width="37.1287" height="37.1287" rx="18.5644" transform="rotate(-13.1056 84.1592 6.1416)" fill="#44B27F"/>
<path d="M98.3873 22.0374C98.5839 22.3427 98.7545 22.5818 98.9077 22.8352C99.394 23.6203 100.116 24.0421 101.036 23.9857C101.998 23.93 102.674 23.4141 103.04 22.5057C103.068 22.4478 103.096 22.3899 103.146 22.2959C104.09 22.6462 105.021 22.9891 105.953 23.332C107.123 23.7643 108.288 24.2185 109.474 24.6267C109.644 24.6906 110.008 24.6485 110.054 24.5349C110.225 24.2071 109.895 24.1281 109.668 24.0462C107.36 23.1845 105.051 22.3229 102.724 21.4755C101.929 21.1838 101.509 20.6311 101.363 19.84C101.156 18.7023 101.955 17.736 103.111 17.7593C103.57 17.7675 104.044 17.8442 104.476 18.0028C106.951 18.9088 109.405 19.8607 111.87 20.769C114.028 21.5622 114.73 23.0812 114.469 25.7071C114.26 27.7645 113.156 29.3263 111.396 30.3897C109.383 31.614 107.187 32.1074 104.844 31.7172C102.198 31.2729 100.429 29.7104 99.6192 27.2064C99.0842 25.5566 98.7904 23.8308 98.3677 22.0419L98.3873 22.0374Z" fill="white"/>
<path d="M112.607 20.3634C110.764 19.6639 109.012 19.005 107.249 18.3385C106.406 18.0169 105.558 17.7171 104.73 17.3715C104.536 17.2926 104.338 17.0701 104.27 16.8695C103.538 14.4731 102.826 12.0721 102.116 9.68099C101.843 8.74467 102.211 8.02178 103.109 7.70237C104.008 7.38296 104.865 7.72181 105.2 8.61304C105.53 9.48473 105.772 10.3767 106.026 11.2762C106.605 13.2443 107.186 15.2221 107.755 17.1925C107.771 17.2609 107.787 17.3292 107.821 17.3833C107.928 17.6163 107.914 18.0416 108.315 17.9394C108.718 17.8469 108.527 17.4787 108.477 17.2224C107.977 14.3609 107.48 11.5091 106.97 8.64978C106.773 7.55189 107.259 6.80191 108.263 6.62302C109.235 6.44112 109.962 6.97461 110.19 8.02441C110.261 8.32725 110.325 8.64211 110.377 8.94946C111.073 12.5076 111.78 16.0734 112.476 19.6315C112.527 19.8464 112.555 20.0561 112.605 20.3537L112.607 20.3634Z" fill="white"/>
<path d="M102.495 22.1108C102.322 22.7376 101.934 23.1563 101.307 23.3104C100.673 23.4765 100.057 23.3292 99.6949 22.8046C99.0465 21.9027 98.4525 20.9677 97.9128 19.9997C97.5141 19.2774 97.8522 18.4274 98.5689 17.9952C99.241 17.5938 100.145 17.7365 100.651 18.3415C100.742 18.4648 100.848 18.6467 100.816 18.7775C100.517 20.319 101.077 21.4163 102.505 22.1085L102.495 22.1108Z" fill="white"/>
<path d="M101.231 17.9442C100.91 17.7291 100.609 17.5509 100.34 17.3343C100.238 17.2546 100.142 17.1116 100.112 16.9845C99.9007 16.1776 100.384 15.3247 101.192 15.0569C102 14.7891 102.911 15.1779 103.221 15.9623C103.356 16.3128 103.404 16.6934 103.489 17.0551C101.775 17.3041 101.952 17.4387 101.241 17.9419L101.231 17.9442Z" fill="white"/>
</g>
<defs>
<clipPath id="clip0_210_1288">
<rect width="125" height="38" fill="white" transform="translate(0 0.816895)"/>
</clipPath>
</defs>
</svg>
