<svg width="160" height="58" viewBox="0 0 160 58" fill="none" xmlns="http://www.w3.org/2000/svg">
<path d="M87.5288 30.5168H84.591V11.5655H87.5288V19.003H88.0304C89.6068 19.003 90.1084 17.2866 90.1084 15.9994V11.5655H93.0463V15.9279C93.0463 17.9303 92.3297 19.4321 90.8966 20.3618C92.4731 21.4345 93.0463 22.8648 93.0463 24.7957V30.5168H90.1084V24.7242C90.1084 23.5084 89.5352 22.0066 88.0304 22.0066H87.5288V30.5168ZM136.828 30.5168V11.5655H139.407V22.6502L142.417 11.5655H145.641V30.5168H143.062V17.2866L139.479 30.5168H136.828ZM147.719 30.5168V11.5655H150.299V22.6502L153.308 11.5655H156.533V30.5168H153.953V17.2866L150.37 30.5168H147.719ZM155.315 7.06006V9.27701H148.937V7.06006H155.315ZM129.447 30.5168H126.509V11.5655H129.447V19.003H129.949C131.525 19.003 132.027 17.2866 132.027 15.9994V11.5655H134.965V15.9279C134.965 17.9303 134.248 19.4321 132.815 20.3618C134.391 21.4345 134.965 22.8648 134.965 24.7957V30.5168H132.027V24.7242C132.027 23.5084 131.453 22.0066 129.949 22.0066H129.447V30.5168ZM76.8522 30.4453H73.9143V11.494H76.8522H79.6468H82.5846V19.146H79.6468V14.2115H76.8522V27.7278H79.6468V22.7933H82.5846V30.3738H79.6468H76.8522V30.4453ZM118.771 30.4453H115.833V11.494H118.771H121.565H124.503V19.146H121.565V14.2115H118.771V27.7278H121.565V22.7933H124.503V30.3738H121.565H118.771V30.4453ZM68.9701 14.2115H66.2472C66.2472 18.7885 66.2472 23.2224 66.2472 27.7278H68.9701C68.9701 23.2224 68.9701 18.7885 68.9701 14.2115ZM66.1756 30.4453H63.3094C63.3094 24.152 63.3094 17.7872 63.3094 11.494H66.2472H69.0418H71.9797C71.9797 17.7872 71.9797 24.152 71.9797 30.4453H69.0418H66.1756ZM100.713 14.2115H97.9905C97.9905 18.7885 97.9905 23.2224 97.9905 27.7278H100.713C100.713 23.2224 100.713 18.7885 100.713 14.2115ZM97.9905 30.4453H95.0526C95.0526 24.152 95.0526 17.7872 95.0526 11.494H97.9905H100.785H103.723C103.723 17.7872 103.723 24.152 103.723 30.4453H100.785H97.9905ZM108.667 14.2115V19.2891C109.742 19.3606 111.032 19.2891 111.032 17.3582V15.6418V14.2115H108.667ZM108.667 22.0066V27.7278H111.032C111.032 26.512 111.032 25.2963 111.032 24.009C111.032 22.1496 109.742 21.9351 108.667 22.0066ZM113.97 14.8551V15.6418V17.1436C113.97 18.6454 113.325 19.7897 112.322 20.4333C113.396 21.2915 113.97 22.5787 113.97 24.2236C113.97 26.2975 113.97 28.3714 113.97 30.4453C112.178 30.4453 110.459 30.4453 108.667 30.4453H105.729V11.494H108.667C110.459 11.494 112.178 11.494 113.97 11.494V14.8551ZM55.1407 24.2236C55.9289 20.1472 56.8604 15.6418 57.362 11.5655H61.303V30.5168H58.7951V23.0078L59.0817 16.2139C58.7234 18.3594 57.2903 26.4405 55.499 30.3023H55.2123H54.9257C53.1343 26.4405 51.7012 18.4309 51.3429 16.2139L51.6296 23.0078V30.5168H48.9783V11.5655H52.9194C53.3493 15.6418 54.3525 20.1472 55.1407 24.2236Z" fill="white"/>
<path d="M83.5155 35.8485V43.8358C84.5814 43.9035 85.8606 43.7005 85.8606 41.8729V40.2483V35.8485H83.5155ZM88.7742 39.5037V40.2483V41.6698C88.7742 44.445 87.2819 46.3403 84.5104 46.3403H83.5865V51.1462H80.6729V33.2764C83.3734 33.2764 86.0738 33.2764 88.7742 33.2764V39.5037ZM89.627 33.2764H98.51V35.8485H95.5253V51.2139H92.6117V35.8485H89.627V33.2764ZM75.7695 35.8485H73.069C73.069 40.1806 73.069 44.3773 73.069 48.6417H75.7695C75.7695 44.3097 75.7695 40.1129 75.7695 35.8485ZM73.069 51.2139H70.1554C70.1554 45.2573 70.1554 39.233 70.1554 33.2764H73.069H75.8405H78.7542C78.7542 39.233 78.7542 45.2573 78.7542 51.2139H75.8405H73.069ZM51.892 51.2139H48.9783V33.2764H51.892H54.6635H57.5771V40.4514H54.6635V35.7809H51.892V48.574H54.6635V43.9035H57.5771V51.0785H54.6635H51.892V51.2139ZM62.4805 51.2139H59.5669V33.2764H68.0946V51.2139H65.1809V35.8485H62.4805V51.2139Z" fill="white"/>
<path d="M23.5049 41.7456C24.2401 42.5689 25.0488 43.3922 25.8575 44.1469C29.8273 47.646 34.8265 50.1846 40.4872 51.2137V48.0577C35.7822 47.0285 31.5917 44.9016 28.2835 41.9514C27.1808 40.9909 26.2251 39.9618 25.3429 38.7954L23.5049 41.7456Z" fill="white"/>
<path d="M11.5458 38.0058C15.1817 34.6809 17.4359 30.1093 17.4359 25.122V11.1992H20.8536V25.122C20.8536 27.5464 21.2899 30.4556 22.0898 32.6722C22.8897 30.4556 23.326 27.6156 23.326 25.122V11.1992H26.7437V25.122C26.7437 30.1093 28.9979 34.6809 32.6338 38.0058C34.8153 40.0145 37.5059 41.5384 40.4873 42.4389V45.6945C36.5605 44.6555 33.0701 42.7852 30.2342 40.2223C28.1254 38.2829 26.3801 36.0663 25.2166 33.5034C24.344 35.72 23.326 37.7287 22.0898 39.3219C20.8536 37.7287 19.9083 35.6507 18.963 33.5034C17.7995 35.997 16.0543 38.2829 13.9454 40.2223C11.1095 42.7852 7.61906 44.6555 3.69232 45.6945V42.4389C6.67373 41.5384 9.36427 40.0145 11.5458 38.0058Z" fill="white"/>
<path d="M32.4709 25.2049C32.4709 28.7789 34.0882 32.0158 36.6197 34.376C37.7449 35.3875 39.0106 36.2641 40.4874 36.8711V40.1753C38.1668 39.3661 36.0572 38.0849 34.2992 36.5339C31.1348 33.6342 29.1658 29.6556 29.1658 25.2723V22.2378H32.4709V25.2049Z" fill="white"/>
<path d="M11.7089 22.2378H15.0139V25.2723C15.0139 29.6556 13.045 33.6342 9.88055 36.5339C8.12254 38.1523 6.01295 39.3661 3.69238 40.1753V36.8711C5.09879 36.2641 6.43487 35.3875 7.55999 34.376C10.1618 32.0158 11.7089 28.7789 11.7089 25.2049V22.2378Z" fill="white"/>
<path d="M18.8368 38.7954C17.9546 39.8932 16.9253 40.9909 15.8961 41.9514C12.5879 44.9016 8.39744 47.0285 3.69238 48.0577V51.2137C9.35315 50.116 14.4258 47.646 18.3222 44.1469C19.1308 43.3922 19.9395 42.6375 20.6747 41.7456L18.8368 38.7954Z" fill="white"/>
</svg>
